<svg class="fun-icon" xmlns="http://www.w3.org/2000/svg" viewBox="-234.7 370.9 76.2 72.1"><path d="M-162.4 407.1c0-.7-.6-1.3-1.3-1.3h-6.7v-14.3c0-.7-.6-1.3-1.3-1.3h-6.6l-4.8-8.6c-.2-.4-.7-.7-1.2-.7h-10.1v-7.4c0-.7-.6-1.3-1.3-1.3s-1.3.6-1.3 1.3v7.4h-10.1c-.5 0-.9.3-1.2.7l-4.8 8.6h-6.6c-.7 0-1.3.6-1.3 1.3v14.3h-6.7c-.7 0-1.3.6-1.3 1.3v9.3c2 7.5 6.6 14 12.9 18.5-1.1.7-2.3 1.1-3.7 1.1-3.7 0-6.7-3-6.7-6.7 0-.7-.6-1.3-1.3-1.3s-1.3.6-1.3 1.3c0 5.1 4.2 9.3 9.3 9.3 2.6 0 5-1.1 6.7-2.9l.2-.2c.4-.4.8-.9 1.1-1.5 1.6 2.7 4.6 4.5 8 4.5s6.4-1.8 8-4.5c1.6 2.7 4.6 4.5 8 4.5s6.4-1.8 8-4.5c.3.5.7 1 1.1 1.5.1.1.1.2.2.2 1.7 1.8 4.1 2.9 6.7 2.9 5.1 0 9.3-4.2 9.3-9.3 0-.7-.6-1.3-1.3-1.3s-1.3.6-1.3 1.3c0 3.7-3 6.7-6.7 6.7-1.4 0-2.6-.4-3.7-1.1 6.4-4.5 11-11 12.9-18.5v-.3-9zm-44-23.7h21.4l3.7 6.7h-28.8l3.7-6.7zm-12 9.4h45.3v13h-5.3v-6.5c0-.7-.6-1.3-1.3-1.3h-32c-.7 0-1.3.6-1.3 1.3v6.5h-5.3c-.1-.1-.1-13-.1-13zm37.4 12.9h-29.3v-5.2h29.3v5.2zm3.7 27.3c-.7-1-1.1-2.3-1.1-3.6 0-.7-.6-1.3-1.3-1.3s-1.3.6-1.3 1.3c0 3.7-3 6.7-6.7 6.7s-6.7-3-6.7-6.7c0-.7-.6-1.3-1.3-1.3s-1.3.6-1.3 1.3c0 3.7-3 6.7-6.7 6.7s-6.7-3-6.7-6.7c0-.7-.6-1.3-1.3-1.3s-1.3.6-1.3 1.3c0 1.3-.4 2.6-1.1 3.6-6-4.2-10.4-10.2-12.2-17.1v-7.5h61.3v7.5c-1.9 6.9-6.2 12.9-12.3 17.1z"/></svg>