<?xml version="1.0" encoding="utf-8"?>
<!-- Generator: Adobe Illustrator 18.1.1, SVG Export Plug-In . SVG Version: 6.00 Build 0)  -->
<svg version="1.1" id="Layer_1" xmlns="http://www.w3.org/2000/svg" xmlns:xlink="http://www.w3.org/1999/xlink" x="0px" y="0px"
	 viewBox="-234.7 370.9 76.2 72.1" enable-background="new -234.7 370.9 76.2 72.1" xml:space="preserve">
<path d="M-162.4,407.1c0-0.7-0.6-1.3-1.3-1.3h-6.7v-14.3c0-0.7-0.6-1.3-1.3-1.3h-6.6l-4.8-8.6c-0.2-0.4-0.7-0.7-1.2-0.7h-10.1v-7.4
	c0-0.7-0.6-1.3-1.3-1.3s-1.3,0.6-1.3,1.3v7.4h-10.1c-0.5,0-0.9,0.3-1.2,0.7l-4.8,8.6h-6.6c-0.7,0-1.3,0.6-1.3,1.3v14.3h-6.7
	c-0.7,0-1.3,0.6-1.3,1.3v8.9c0,0,0,0,0,0.1c0,0.1,0,0.2,0,0.3c2,7.5,6.6,14,12.9,18.5c-1.1,0.7-2.3,1.1-3.7,1.1
	c-3.7,0-6.7-3-6.7-6.7c0-0.7-0.6-1.3-1.3-1.3s-1.3,0.6-1.3,1.3c0,5.1,4.2,9.3,9.3,9.3c2.6,0,5-1.1,6.7-2.9c0.1-0.1,0.1-0.1,0.2-0.2
	c0.4-0.4,0.8-0.9,1.1-1.5c1.6,2.7,4.6,4.5,8,4.5s6.4-1.8,8-4.5c1.6,2.7,4.6,4.5,8,4.5s6.4-1.8,8-4.5c0.3,0.5,0.7,1,1.1,1.5
	c0.1,0.1,0.1,0.2,0.2,0.2c1.7,1.8,4.1,2.9,6.7,2.9c5.1,0,9.3-4.2,9.3-9.3c0-0.7-0.6-1.3-1.3-1.3s-1.3,0.6-1.3,1.3
	c0,3.7-3,6.7-6.7,6.7c-1.4,0-2.6-0.4-3.7-1.1c6.4-4.5,11-11,12.9-18.5c0-0.1,0-0.2,0-0.3c0,0,0,0,0-0.1V407.1z M-206.4,383.4h21.4
	l3.7,6.7h-28.8L-206.4,383.4z M-218.4,392.8c0,0,39.3,0,39.3,0h6v13h-5.3v-6.5c0-0.7-0.6-1.3-1.3-1.3h-32c-0.7,0-1.3,0.6-1.3,1.3
	v6.5h-5.3C-218.4,405.7-218.4,392.8-218.4,392.8z M-181,405.7h-29.3v-5.2h29.3V405.7z M-177.3,433c-0.7-1-1.1-2.3-1.1-3.6
	c0-0.7-0.6-1.3-1.3-1.3s-1.3,0.6-1.3,1.3c0,3.7-3,6.7-6.7,6.7s-6.7-3-6.7-6.7c0-0.7-0.6-1.3-1.3-1.3s-1.3,0.6-1.3,1.3
	c0,3.7-3,6.7-6.7,6.7s-6.7-3-6.7-6.7c0-0.7-0.6-1.3-1.3-1.3s-1.3,0.6-1.3,1.3c0,1.3-0.4,2.6-1.1,3.6c-6-4.2-10.4-10.2-12.2-17.1
	v-7.5h61.3v7.5C-166.9,422.8-171.2,428.8-177.3,433z"/>
</svg>
