<svg class="fun-icon" xmlns="http://www.w3.org/2000/svg" viewBox="0 0 100.0 85">
    <ellipse class="wheel" rx="8" ry="7.5" cy="73" cx="72" fill="none" stroke="#000" stroke-width="2" />
    <ellipse class="wheel" rx="7.5" ry="8" cy="73" cx="32.5" fill="none" stroke="#000" stroke-width="2" />
    <g class="bus">
        <path d="M91 32.7H8.6c-.7 0-1.3-.5-1.3-1.2s.6-1.3 1.3-1.3H91c.6 0 1.2.6 1.2 1.3 0 .7-.6 1.2-1.3 1.2z" />
        <path d="M56.4 46.5c-.7 0-1.3-.6-1.3-1.3V32.5c0-.7.8-1.3 1.5-1.3s1.2.6 1.2 1.3v12.7c0 .7-.5 1.3-1.2 1.3zM21.8 58H9.5c-.6 0-1.2-.7-1.2-1.4s.6-1.2 1.2-1.2h11v-23c0-.6.6-1.2 1.3-1.2.7 0 1.2.6 1.2 1.3v24c0 .8-.5 1.4-1.2 1.4zM75.2 46.5c-.7 0-1.3-.6-1.3-1.3V32.5c0-.7.4-1.3 1-1.3.8 0 1.3.6 1.3 1.3v12.7c0 .7-.5 1.3-1.2 1.3zM39 46.5c-.8 0-1.3-.6-1.3-1.3V32.5c0-.7.5-1.3 1.2-1.3.6 0 1 .6 1 1.3v12.7c0 .7-.5 1.3-1.2 1.3zM64 72.4H41.4c-.7 0-1.3-.6-1.3-1.3 0-.6.8-1 1.5-1H64c.7 0 1.2.5 1.2 1 0 .7-.5 1.5-1.2 1.5z" />
        <path d="M90 72.4h-9c-.8 0-1.3-.6-1.3-1.3 0-.6.5-1 1.2-1h9V22H10v48h13.6c.6 0 1.2.4 1.2 1s-.6 1.4-1.2 1.4H10c-1.4 0-2.6-1.2-2.6-2.7V22c0-1.4 1.2-2.6 2.7-2.6h80c1.5 0 2.7 1.2 2.7 2.7V70c0 1.5-1.2 2.7-2.7 2.7z" />
        <path d="M91 48.3H21.7c-.7 0-1.3-.6-1.3-1.3 0-.7.6-1.2 1.3-1.2h69c.8 0 1.4.6 1.4 1.3 0 .8-.5 1.4-1.2 1.4z" />
    </g>
</svg>
