TODO swap this for https://thenounproject.com/term/bus/16553/ 
<svg xmlns="http://www.w3.org/2000/svg"  viewBox="5.0 -10.0 100.0 135.0">
	<path d="M93.085,45.997l5.007-15.526h1.851c-0.304-2.357-2.022-3.492-7.397-4.325c-5.979-0.925-21.949-2.104-39.156-2.117   c-17.239,0.013-33.249,1.679-39.237,2.605c-4.509,0.697-6.448,1.606-7.135,3.272l-0.168,0.564h8.313l-5.006,15.526H2.233   l-0.276,0.936v18.611H0v2.794h9.589c0-5.234,4.244-9.478,9.479-9.478s9.479,4.243,9.479,9.478H71.41   c0-5.234,4.243-9.478,9.479-9.478c5.233,0,9.477,4.243,9.477,9.478h5.165c2.457,0,4.469-2.011,4.469-4.468c0,0,0-9.202,0-17.873   H93.085z M14.679,45.997l5.007-15.526h15.078l-5.006,15.526H14.679z M34.28,45.997l5.007-15.526h15.078l-5.007,15.526H34.28z    M68.961,45.997H53.883l5.006-15.526h15.078L68.961,45.997z M88.562,45.997H73.483l5.008-15.526h15.077L88.562,45.997z"/>
	<path class="wheel" d="M19.067,60.701c-4.216,0-7.635,3.418-7.635,7.637c0,4.216,3.419,7.634,7.635,7.634c4.217,0,7.635-3.418,7.635-7.634   C26.702,64.119,23.284,60.701,19.067,60.701z M19.067,71.76c-1.891,0-3.423-1.532-3.423-3.422c0-1.891,1.532-3.423,3.423-3.423   c1.89,0,3.423,1.532,3.423,3.423C22.49,70.228,20.957,71.76,19.067,71.76z"/>
	<path class="wheel" d="M80.888,60.701c-4.216,0-7.635,3.418-7.635,7.637c0,4.216,3.419,7.634,7.635,7.634c4.217,0,7.636-3.418,7.636-7.634   C88.523,64.119,85.104,60.701,80.888,60.701z M80.888,71.76c-1.891,0-3.422-1.532-3.422-3.422c0-1.891,1.531-3.423,3.422-3.423   s3.423,1.532,3.423,3.423C84.311,70.228,82.778,71.76,80.888,71.76z"/>
</svg>