<svg class="fun-icon" xmlns="http://www.w3.org/2000/svg" viewBox="-243.7 395 53 25.1">
  <path d="M-223 418.8c-2.2 0-4.1-1.9-4.1-4.1 0-2.2 1.9-4.1 4.1-4.1 2.2 0 4.1 1.9 4.1 4.1 0 2.3-1.9 4.1-4.1 4.1zm0-6.7c-1.4 0-2.6 1.2-2.6 2.6 0 1.4 1.2 2.6 2.6 2.6 1.4 0 2.6-1.2 2.6-2.6 0-1.4-1.2-2.6-2.6-2.6z"/>
  <path d="M-223 415.9c-.6 0-1.1-.5-1.1-1.1 0-.6.5-1.1 1.1-1.1.6 0 1.1.5 1.1 1.1 0 .6-.5 1.1-1.1 1.1zm0-1.5c-.2 0-.4.1-.4.4 0 .2.1.4.4.4.2 0 .4-.1.4-.4 0-.3-.2-.4-.4-.4zM-195.3 415.1h-2.1v-1.5h2.1c.4-.1 1.4-1.7 1.6-2.4.3-1.2-.1-2.1-.4-2.5-.4-.7-1-1-1.3-1-.9-.1-2.3-.4-3.7-.7-1.8-.4-4.1-.7-4.4-.8v-1.5c.2 0 1 .1 4.6.8 1.4.3 2.8.5 3.7.7.8.1 1.6.8 2.2 1.6.5.7 1 2 .6 3.7 0 .6-1.3 3.6-2.9 3.6z"/>
  <path d="M-226.3 415.1h-2.2c-2.1 0-3.7-1.6-3.7-3.7v-3c0-2.1 1.6-3.7 3.7-3.7h3.3l1.5-3c.9-1.8 2.7-2.9 4.7-2.9h9.6c1.8 0 3.4.9 4.4 2.4l2.4 3.9-1.3.8-2.4-3.9c-.7-1.1-1.9-1.8-3.1-1.8h-9.6c-1.5 0-2.7.8-3.4 2.1l-1.9 3.9h-4.1c-1.3 0-2.2 1-2.2 2.2v3c0 1.3 1 2.2 2.2 2.2h2.2v1.5zM-200.8 418.8c-2.2 0-4.1-1.9-4.1-4.1 0-2.2 1.9-4.1 4.1-4.1 2.2 0 4.1 1.9 4.1 4.1 0 2.3-1.9 4.1-4.1 4.1zm0-6.7c-1.4 0-2.6 1.2-2.6 2.6 0 1.4 1.2 2.6 2.6 2.6 1.4 0 2.6-1.2 2.6-2.6 0-1.4-1.2-2.6-2.6-2.6z"/>
  <path d="M-200.8 415.9c-.6 0-1.1-.5-1.1-1.1 0-.6.5-1.1 1.1-1.1.6 0 1.1.5 1.1 1.1 0 .6-.5 1.1-1.1 1.1zm0-1.5c-.2 0-.4.1-.4.4 0 .2.1.4.4.4.2 0 .4-.1.4-.4 0-.3-.2-.4-.4-.4zM-212.243 404.667h9.263v1.533h-10.72v-5.315h7.702v1.533h-6.245M-213 406.2h-6.7c-.6 0-1-.3-1.3-.8-.3-.5-.3-1.1 0-1.6l1.1-1.9c.4-.6 1-1 1.7-1h5.3v1.5h-5.3c-.1 0-.4.1-.4.2l-1.1 1.9.1.1h6.7v1.6zM-219.7 413.6h15.258v1.5H-219.7zM-231.5 407.7h2.2v1.5h-2.2zM-196 409.2h3v1.5h-3zM-209.3 399.6h-1.5v-1.5c0-.4-.4-.7-.9-.7h-4.1c-.4 0-.9.3-.9.7v1.5h-1.5v-1.5c0-1.2 1-2.2 2.4-2.2h4.1c1.3 0 2.4 1 2.4 2.2v1.5zM-238.9 409.2h4.4v1.5h-4.4zM-242.6 405.5h6.7v1.5h-6.7zM-238.9 401.8h10.4v1.5h-10.4z"/>
</svg>