<?xml version="1.0" encoding="utf-8"?>
<!-- Generator: Adobe Illustrator 18.1.1, SVG Export Plug-In . SVG Version: 6.00 Build 0)  -->
<svg version="1.1" id="Layer_1" xmlns="http://www.w3.org/2000/svg" xmlns:xlink="http://www.w3.org/1999/xlink" x="0px" y="0px"
	 viewBox="-228 380.6 63.9 44.5" enable-background="new -228 380.6 63.9 44.5" xml:space="preserve">
<g id="Guides" display="none">
</g>
<g id="Contact">
</g>
<g id="Quote">
</g>
<g id="Image_2">
</g>
<g id="FAQs">
</g>
<g id="General">
</g>
<g id="Hazard" display="none">
</g>
<g id="Map">
</g>
<g id="Marlb_Sounds" display="none">
</g>
<g id="Header_Images">
</g>
<g id="BBackground">
</g>
<g id="What_can_I_do" display="none">
</g>
<g id="General_Info" display="none">
</g>
<g id="Q.C.S" display="none">
</g>
<g id="Logo">
</g>
<g id="About">
</g>
<g id="Navigation">
</g>
<g id="Weather">
</g>
<g id="Weather__x28_full_x29_" display="none">
</g>
<g id="Login_x2F_Reg">
</g>
<g id="Menu">
</g>
<g id="Log_In" display="none">
</g>
<g id="Sticky_Nav" display="none">
</g>
<g id="Log_In_Rollover" display="none">
</g>
<g id="Not_Registred" display="none">
</g>
<g id="Search" display="none">
</g>
<g id="Social_M" display="none">
</g>
<g id="View_Map" display="none">
</g>
<g id="General_Info_1_" display="none">
</g>
<g id="Send_Message" display="none">
</g>
<g id="Join" display="none">
</g>
<g id="Ask_Ques" display="none">
</g>
<g id="Map_1_">
</g>
<g id="Map_Menu">
</g>
<g id="Map_filter">
</g>
<g id="Area">
</g>
<g id="Area_dropdown">
</g>
<g id="Filter_Search">
</g>
<g id="Popularity">
</g>
<g id="Facil_search" display="none">
</g>
<g id="Momo_search" display="none">
</g>
<g id="Search_results" display="none">
</g>
<g id="Hide_Map" display="none">
</g>
<g id="Momorangi" display="none">
</g>
<g id="Guides2" display="none">
</g>
<g id="Elements">
	<g>
		<path d="M-165.8,416.8c-0.2-0.7-0.6-1.3-1-1.9c-0.5-0.6-1.1-1.1-1.6-1.6c-2-1.9-4.4-3.1-7.2-3.6c-0.1,0-0.2-0.1-0.2-0.2
			c-0.2-0.9-0.4-1.7-0.6-2.6c-0.7-2.5-1.6-5-3-7.3c-1.2-2.1-2.8-4-4.7-5.5c-2.6-2.1-5.6-3.3-8.8-3.9c-0.6-0.1-1.1-0.1-1.7-0.3
			c-0.9-0.3-1.4-1.2-1-2.1c0.2-0.4,0.4-0.7,0.6-1.1c0.3-0.6,0.6-1.2,0.7-1.8c0.1-0.8-0.2-1.4-0.8-1.7c-0.3-0.1-0.6-0.1-1-0.1
			c-0.8,0-1.6,0.3-2.3,0.6c-2.1,1-3.9,2.5-5.3,4.4c-0.5,0.7-1,1.3-1.6,1.8c-0.1,0.1-0.2,0.1-0.3,0.1c-0.9,0-1.8,0.1-2.7,0.3
			c-2.5,0.5-4.8,1.4-7.1,2.5c-2.7,1.5-5.2,3.2-7.4,5.4c-0.8,0.8-1.5,1.7-1.8,2.9c-0.5,1.4-0.5,2.9-0.1,4.3c0.1,0.2,0.1,0.4,0,0.6
			c-0.2,0.6-0.4,1.2-0.5,1.8c-0.2,0.9-0.4,1.7-0.2,2.6c0.1,0.8,0.7,1.3,1.5,1.4c0.4,0,0.9-0.1,1.3-0.3c0.7-0.3,1.2-0.8,1.7-1.3
			c0.7-0.6,1.4-1.1,2.1-1.6c0.7-0.5,1.5-0.6,2.3-0.7c1.8-0.2,3.7-0.5,5.6-0.7c0.9-0.1,1.8-0.1,2.7,0c0.5,0.1,0.9,0.2,1.2,0.6
			c0.3,0.4,0.7,0.8,1.1,1.2c0.5,0.5,1,1,1.7,1.3c0.9,0.3,1.9,0.5,2.8,0.5c1.1,0,2.1-0.4,3-1c0.8-0.5,0.9-1.6,0.2-2.3
			c-0.3-0.2-0.6-0.3-0.9-0.4c-0.1,0-0.3-0.1-0.4-0.2c-0.4-0.4-0.7-0.8-1.1-1.3c0.1,0,0.1,0,0.1,0c1.2-0.2,2.4-0.4,3.6-0.6
			c1.1-0.2,2.1-0.3,3.2-0.4c1.2,0,2.3,0.1,3.4,0.4c2.1,0.5,4,1.2,5.6,2.6c1.3,1.1,2.5,2.4,3.7,3.6c0.1,0.1,0,0.2,0,0.2
			c-0.4,0.5-0.7,1-1,1.6c-0.9,2.1-0.8,4.3-0.3,6.5c0.1,0.6,0.4,1.2,1,1.7c0.8,0.7,1.9,0.7,2.6-0.2c0.2-0.2,0.3-0.4,0.5-0.7
			c0.3-0.4,0.6-0.8,1-1.1c0.3-0.2,0.6-0.4,0.9-0.6c1-0.6,2.1-1,3.3-1c1,0,1.9,0.2,2.9,0.4c0.7,0.1,1.4,0.4,2.1,0.6
			c0.5,0.1,1,0.1,1.5-0.1C-166,418.5-165.6,417.7-165.8,416.8z M-167.7,417.5c-0.6-0.1-1.3-0.4-1.9-0.5c-1.3-0.3-2.6-0.5-4-0.5
			c-0.8,0-1.6,0.2-2.3,0.5c-1.2,0.5-2.2,1.2-3.1,2.1c-0.2,0.2-0.4,0.4-0.5,0.7c-0.1,0.2-0.2,0.3-0.3,0.5c-0.2,0.4-0.4,0.4-0.7,0
			c-0.3-0.4-0.4-1-0.5-1.5c-0.1-1-0.2-2-0.1-3c0.1-0.8,0.4-1.6,0.8-2.4c0.3-0.6,0.8-1,1.4-1.3c0.2-0.1,0.2-0.2,0.1-0.3
			c-0.8-1.1-1.9-2.1-2.8-3.1c-0.8-0.8-1.5-1.5-2.4-2.2c-1.8-1.4-3.8-2.2-6-2.7c-1.4-0.3-2.8-0.5-4.2-0.4c-1.2,0.1-2.4,0.3-3.6,0.4
			c-1.4,0.2-2.7,0.4-4.1,0.7c-0.7,0.1-1.3,0.4-1.9,0.6c-0.2,0.1-0.4,0.2-0.6,0.3c0.5,0.2,0.9,0.4,1.3,0.6c0.5,0.2,0.8,0.5,1.2,0.9
			c0.2,0.3,0.5,0.6,0.7,0.8c0.4,0.5,0.9,1,1.6,1c-0.7,0.4-1.3,0.6-2,0.6c-0.7,0-1.3-0.2-2-0.3c-0.5-0.1-0.9-0.4-1.2-0.8
			c-0.4-0.5-0.9-1-1.4-1.5c-0.6-0.6-1.2-1-2.1-1.1c-1.1-0.1-2.2-0.1-3.2,0c-1.7,0.1-3.5,0.4-5.2,0.6c-0.5,0.1-1,0.1-1.5,0.2
			c-0.8,0.2-1.6,0.6-2.3,1.1c-0.8,0.6-1.6,1.2-2.3,1.8c-0.3,0.2-0.6,0.4-1,0.6c-0.3,0.1-0.4,0-0.4-0.3c0-0.7,0.2-1.4,0.4-2.1
			c0.1-0.3,0.2-0.6,0.3-0.9c0-0.2,0.1-0.2,0.3-0.2c1.4-0.2,2.7-0.6,4-1.3c1.2-0.7,2.2-1.6,2.7-2.9c0-0.1,0.1-0.1,0.1-0.2
			c0.6-0.8,0.5-1.9-0.3-2.5c-0.8-0.6-1.9-0.4-2.5,0.4c-0.6,0.8-0.3,1.9,0.5,2.5c0.2,0.1,0.2,0.2,0,0.3c-0.8,0.9-1.8,1.4-2.9,1.7
			c-0.5,0.2-1,0.3-1.6,0.4c-0.2,0-0.2,0-0.3-0.2c-0.4-1.9-0.1-3.6,1.1-5.1c0.7-0.9,1.6-1.6,2.5-2.3c2-1.6,4.1-3,6.5-4
			c2.1-0.9,4.2-1.6,6.4-1.9c0.4,0,0.8-0.1,1.2-0.1c0.4,0,0.8-0.1,1.2-0.4c0.7-0.6,1.3-1.3,1.9-2.1c1.3-1.8,2.9-3.2,4.9-4.1
			c0.5-0.3,1.1-0.4,1.7-0.5c0.2,0,0.2,0,0.1,0.2c-0.2,0.6-0.5,1.1-0.8,1.6c-0.2,0.4-0.4,0.7-0.5,1.1c-0.4,1.2-0.1,2.2,0.7,3
			c0.6,0.6,1.3,0.9,2.2,1c3.2,0.4,6.1,1.5,8.7,3.4c2.1,1.5,3.7,3.5,5,5.8c1.3,2.2,2.1,4.6,2.8,7.1c0.3,1.1,0.5,2.2,0.7,3.3
			c0,0.2,0.1,0.2,0.3,0.2c0.6-0.3,1.1-0.1,1.7,0c2.2,0.5,4.1,1.6,5.7,3.1c0.6,0.5,1.2,1.1,1.7,1.7c0.2,0.3,0.4,0.5,0.4,0.8
			C-167.2,417.5-167.4,417.6-167.7,417.5z M-217.9,401.3c0-0.1,0.1-0.2,0.2-0.2c0.1,0,0.2,0.1,0.2,0.2c0,0.1-0.1,0.2-0.2,0.2
			C-217.8,401.5-217.9,401.4-217.9,401.3z"/>
		<path d="M-182.2,400.7c-0.8-1-1.6-2-2.5-2.9c-1.7-1.6-3.6-3-5.9-3.8c-0.7-0.3-1.4-0.5-2.1-0.5c-0.5,0-0.8,0.3-0.8,0.7
			c0,0.4,0.2,0.8,0.7,0.8c0.3,0,0.6,0.1,0.8,0.2c2.1,0.6,4,1.7,5.6,3.1c1.1,1,2.1,2.1,3,3.3c0.2,0.3,0.5,0.4,0.9,0.3
			C-182,401.8-181.8,401.2-182.2,400.7z"/>
		<path d="M-180.7,402.9c-0.1-0.1-0.3-0.2-0.4-0.3c-0.3-0.1-0.6,0.1-0.8,0.3c-0.2,0.3-0.2,0.6,0,0.9c0.3,0.4,0.6,0.9,0.9,1.3
			c0.1,0.2,0.4,0.4,0.6,0.4c0.6,0,0.9-0.6,0.7-1.1C-180,403.9-180.4,403.4-180.7,402.9z"/>
	</g>
</g>
</svg>
