<svg  class="dolphin fun-icon" xmlns="http://www.w3.org/2000/svg" viewBox="-228 380.6 63.9 44.5">
  <path d="M-165.8 416.8c-.2-.7-.6-1.3-1-2l-1.6-1.5c-2-2-4.4-3-7.2-3.6 0 0-.2 0-.2-.2l-.6-2.6c-.7-2.6-1.6-5-3-7.4-1.2-2-2.8-4-4.7-5.5-2.7-2-5.7-3.2-9-3.8-.5 0-1 0-1.6-.3-1-.4-1.4-1.3-1-2.2l.6-1c.3-.7.6-1.3.7-2 0-.7-.2-1.3-.8-1.6h-1c-1 0-1.7.2-2.4.5-2 1-4 2.5-5.3 4.4-.5.8-1 1.4-1.6 2h-.3c-1 0-1.8 0-2.7.3-2.5.5-4.8 1.4-7 2.5-2.8 1.5-5.3 3.2-7.5 5.4-.8.8-1.5 1.7-1.8 3-.5 1.3-.5 2.8 0 4.2v.6l-.6 1.8c-.2 1-.4 1.7-.2 2.6 0 .8.7 1.3 1.5 1.4.5 0 1 0 1.4-.3.7-.3 1.2-.8 1.7-1.3l2.2-1.6c.7-.5 1.5-.6 2.3-.7l5.6-.8h2.8c.5 0 1 .2 1.2.6l1 1.2c.6.5 1 1 1.8 1.3 1 .3 2 .5 2.8.5 1 0 2-.4 3-1 .8-.5 1-1.6.2-2.3l-1-.4h-.3l-1-1.4 3.6-.6 3.3-.4c1.2 0 2.3 0 3.4.4 2 .5 4 1.2 5.6 2.6 1.3 1 2.5 2.4 3.7 3.6v.2l-1 1.6c-1 2-.8 4.3-.3 6.5 0 .6.4 1.2 1 1.7.8.7 2 .7 2.6-.2l.5-.7c.3-.4.6-.8 1-1l1-.7c1-.6 2-1 3.2-1 1 0 2 .2 3 .4.6 0 1.3.4 2 .6h1.5c.5 0 1-1 .7-1.8zm-2 .7c-.5 0-1.2-.4-1.8-.5-1.3-.3-2.6-.5-4-.5-.8 0-1.6.2-2.3.5-1 .5-2 1.2-3 2l-.5.8c0 .2-.2.3-.3.5-.2.4-.4.4-.7 0-.3-.4-.4-1-.5-1.5 0-1-.2-2 0-3 0-.8.3-1.6.7-2.4.3-.6.8-1 1.4-1.3.3 0 .3 0 .2-.2l-2.8-3c-.8-1-1.5-1.6-2.4-2.3-1.8-1.4-3.8-2.2-6-2.7-1.4-.3-2.8-.5-4.2-.4-1.2 0-2.4.3-3.6.4l-4 .7c-.8 0-1.4.4-2 .6l-.6.4 1.3.6c.4.2.7.5 1 1l.8.7c.4.5 1 1 1.6 1-.7.4-1.3.6-2 .6s-1.3-.2-2-.3c-.5 0-1-.4-1.2-.8l-1.4-1.5c-.6-.6-1.2-1-2-1-1.2-.2-2.3-.2-3.3 0-1.7 0-3.5.3-5.2.5-.5 0-1 0-1.5.2-.8.2-1.6.6-2.3 1l-2.3 2c-.3 0-.6.3-1 .5-.3 0-.4 0-.4-.4 0-.7.2-1.4.4-2 0-.4.2-.7.3-1 0-.2 0-.2.3-.2 1.4-.2 2.7-.6 4-1.3 1.2-.6 2.2-1.5 2.7-2.8v-.2c.7-.8.6-2-.2-2.5-.8-.6-2-.4-2.5.4-.6.7-.3 1.8.5 2.4.2 0 .2.2 0 .3-.8 1-1.8 1.4-3 1.7l-1.5.4c-.2 0-.2 0-.3-.2-.4-2 0-3.6 1-5 .8-1 1.7-1.7 2.6-2.4 2-1.6 4.2-3 6.6-4 2-1 4.2-1.6 6.4-2h1.2c.4 0 .8 0 1.2-.4l2-2c1.2-2 2.8-3.3 4.8-4.2.5-.3 1-.4 1.7-.5v.3l-.8 1.6-.5 1c-.4 1.2 0 2.2.7 3 .6.6 1.3 1 2.2 1 3.2.4 6 1.5 8.7 3.4 2 1.5 3.7 3.5 5 5.8 1.3 2.2 2 4.6 2.8 7 .4 1.2.6 2.3.8 3.4 0 .2 0 .2.3.2.7-.3 1.2 0 1.8 0 2.2.5 4 1.6 5.7 3l1.7 1.8c.2.3.4.5.4.8.2 1 0 1.2-.3 1zm-50-16.2v-.2c.2 0 .3.2.3.3 0 0 0 .2-.2.2 0 0-.2 0-.2-.2zM-182.2 400.7l-2.5-3c-1.7-1.5-3.6-3-6-3.7-.6-.3-1.3-.5-2-.5-.5 0-.8.3-.8.7 0 .4.2.8.7.8.3 0 .6 0 .8.2 2 .6 4 1.7 5.6 3l3 3.4c.2.3.5.4 1 .3.4-.2.6-.8.2-1.3zM-180.7 403c0-.2-.3-.3-.4-.4-.4 0-.7 0-1 .3v.8l1 1.3c0 .3.4.5.6.5.6 0 1-.6.7-1l-1-1.6z"/>
</svg>