<svg xmlns="http://www.w3.org/2000/svg" xmlns:xlink="http://www.w3.org/1999/xlink" viewBox="0 0 612 792">
  <symbol id="c" viewBox="-4.2 -4.2 8.4 8.4">
    <polygon points="4.2,-2.9 1.3,0 4.2,2.9 2.9,4.2 0,1.3 -2.9,4.2 -4.2,2.9 -1.3,0 -4.2,-2.9 -2.9,-4.2 0,-1.3 2.9,-4.2"/>
  </symbol>
  <pattern id="a" width="202.8" height="212.6" y="792" patternUnits="userSpaceOnUse" viewBox="59 -426.2 202.8 212.6" overflow="visible">
    <path fill="none" stroke="#9D9D9C" stroke-width="3" stroke-miterlimit="10" d="M254.6-214c0-22 11.4-41.4 28.7-52.8 17.3-11.7 28.7-31 28.7-52.7s-11.4-41.3-28.7-52.7c-17.3-11.7-28.7-31-28.7-52.7" stroke-linecap="round"/>
    <path fill="none" stroke="#9D9D9C" stroke-width="3" stroke-miterlimit="10" d="M204.3-214c0-22 11.4-41.4 28.7-52.8 17.3-11.7 28.7-31 28.7-52.7s-11.4-41.3-28.7-52.7c-17.3-11.7-28.7-31-28.7-52.7" stroke-linecap="round"/>
    <path fill="none" stroke="#9D9D9C" stroke-width="3" stroke-miterlimit="10" d="M153.2-214c0-22 11.4-41.4 28.7-52.8 17.2-11.7 28.6-31 28.6-52.7s-11.4-41.3-28.7-52.7C164.5-384 153-403.2 153-425" stroke-linecap="round"/>
    <path fill="none" stroke="#9D9D9C" stroke-width="3" stroke-miterlimit="10" d="M103-214c0-22 11.3-41.4 28.6-52.8 17.3-11.7 28.7-31 28.7-52.7s-11.4-41.3-28.7-52.7C114.3-384 103-403.2 103-425" stroke-linecap="round"/>
    <path fill="none" stroke="#9D9D9C" stroke-width="3" stroke-miterlimit="10" d="M51.8-214c0-22 11.4-41.4 28.7-52.8 17.3-11.7 28.7-31 28.7-52.7s-11.4-41.3-28.7-52.7c-17.3-11.7-28.7-31-28.7-52.7" stroke-linecap="round"/>
  </pattern>
  <pattern id="b" xlink:href="#a" patternTransform="matrix(.576 0 0 .57 -23292.219 -7325.695)"/>
  <rect width="515" height="1087.4" x="-76.3" y="-239.3" fill="url(#b)"/>
  <path fill="#DADADA" d="M199-302.3c21 48.7 19.5 100.6 30 151.4 4 19.8 4.2 38.4 5.2 58.4 1.6 26.3 6 52.7 8.2 79 4 44.4 4.3 89.2 8.5 133.6 2.3 26 4.2 52 6 78 2 28 8.8 56.2 7 84.4-2.5 40.2-13.7 82.8-6.5 123 7 39.4 7 77.4 5.3 117.4-.8 21.3-6 41.8-8.5 63-3.7 30.4-1.6 59.2-.3 89.5.8 19.4-8.5 38.3-12.8 57.2s-7.5 37.5-8.3 57l-1.7 28c-.8 11.3-6.7 32-3.2 43 1.7 5.6 5.7 8 10.7 10.4 20.2 9.7 46.6 11.3 68.7 13.7 71.3 7.7 143.4 8.5 215 8.8 96.6.3 193.2-3.2 289.5-5.6 10.8-.4 11 2.3 13.5-5.2 2.4-7.7 0-20.2 0-28.2V733 328.5v-431V-260v-51.8c0-8.3 2.4-20.5 0-28.5-2-6.7 2-2.7-4-5-11-4.4-32-.6-43.6-.6l-181.3-2.3c-128.5-1.6-256.8-3.5-385.4-5-8 0-16-.4-24-.4 4 16.8 8 34 11.8 51.4z"/>
  <path fill="#9D9D9C" d="M233.2-354.2c4.8 32 11.7 85.7 21.3 116.8 9 29.5 4 58 7.5 88 1.3 13.7 4 27 3.5 40.6-.5 14.6-6 30-3.5 44.7 1.6 11 7.2 21.7 9.3 33 2 10.5.8 21.2.3 31.8-.5 8.5-2.4 17.6-1 26 1.8 12 9.2 22.2 7.4 34.4-3.2 21.8-8.5 43-2.7 65.5 3.2 12 7.5 22.6 7.5 35.4 0 12.3-2 24.3-2.7 36.6-1 24.8 2 51.6 4.6 76.4 1 10.6.8 18.6-2 28.7-3.6 13.6-2.6 26.6-2.8 40.7-.3 23.4.8 46.6 3.7 70 3 23.2 8.2 41.3 3.2 65.2-4.5 21.3 8.8 38.3 8.5 60 0 10.3-1 21.2 0 31.3 1 11.3 6.4 22.3 6.7 33.7.4 25.8-10.7 53.8-14.2 79.6-3 21.6-9.3 42-12.2 63.3l-6 46.8c-1.7 10.6-3.3 21.3-5.2 32-1.3 7.4-6 20-4.8 27.3 1.6 11.4-14 65.7-4 70.3 17.3 7.5 73-16.8 90.8-11 24 8 48.7 3 74 .4 17.6-2 33-2.7 50.6-4 116.3-8.8 224.6 10.4 341.2 6.4 14.4-.5 33.5-17.3 48-17.8 2.6 0 33-3 34.5-4.5 1.6-2 24-19.4 24-21.6 0-10 2.7-19.5 2.7-29.4 0-69.2 22.6-122.4 22.6-191.6 0-87.8 6.4-202 8-289.8 2.4-137.3-7.7-273.8-5.3-411.2 1.6-97 19.7-171.4 9.3-267.7-1.6-14.4.3-42.8-1-57.2-.6-5 2.8-53 0-57-3.8-5.4-134 14-141.7 14.5-70 4-140 8.3-210 12.2-40.7 2.4-85.2.3-125 8-61.8 12-127.3-.8-188.3 15.4-18.2 5-38.7 23-56.8 27.8z"/>
  <path fill="none" stroke="#3C3C3B" stroke-width="4" stroke-miterlimit="10" d="M405.4-356.3C386-279 380-173.3 415.8-114.7c24.2 39.4 29.5 56.4 24.5 104-4 36.6 6.4 67 16.2 102.3 7.7 28.5 14.6 56.7 17.8 86.2 5.6 52.2-7.7 91.5-16.8 141.6-9.6 52.7-4 108.3-2.7 161.5"/>
  <path fill="none" stroke="#3C3C3B" stroke-width="4" stroke-miterlimit="10" d="M327-345.7c-15.5 39.4-51.5 120-39.5 163 15 53.6 80.4 69.8 92 121.2 11 49.2-74.7 88.6-37 137 22 28.3 62 15.5 67.4 62.6 4 35.5-25.4 67-51.5 85.8-21.3 15.4-40.7 22.4-42.6 39.7-4 37.8-13 54-17 75.6-6.8 40 4.4 89 8.6 129.2 10.4 104 11 158.6-36.5 384.8-6.8 33-7 70-14.5 111.2"/>
  <path fill="none" stroke="#3C3C3B" stroke-width="4" stroke-miterlimit="10" d="M339.4-113c-28.7 48.6-26.6 89.6-1 139.6"/>
  <path fill="none" stroke="#3C3C3B" stroke-width="4" stroke-miterlimit="10" d="M351.4 84.4c-57.7 34.3-57.7 120-35 175.4"/>
  <line x1="391.6" x2="287.5" y1="-197.5" y2="-182.6" fill="none" stroke="#3C3C3B" stroke-width="4" stroke-miterlimit="10"/>
  <line x1="438.9" x2="380.4" y1="-66.5" y2="-50" fill="none" stroke="#3C3C3B" stroke-width="4" stroke-miterlimit="10"/>
  <line x1="440.3" x2="343.9" y1="20.5" y2="18.1" fill="none" stroke="#3C3C3B" stroke-width="4" stroke-miterlimit="10"/>
  <line x1="304.3" x2="348.4" y1="441.2" y2="441.2" fill="none" stroke="#3C3C3B" stroke-width="4" stroke-miterlimit="10"/>
  <line x1="311.5" x2="414.2" y1="574.6" y2="574.6" fill="none" stroke="#3C3C3B" stroke-width="4" stroke-miterlimit="10"/>
  <rect width="52.2" height="224.6" x="344.2" y="348.4" fill="#3C3C3B"/>
  <rect width="27.7" height="8.3" x="359.6" y="576.7" fill="#3C3C3B"/>
  <polygon fill="#3C3C3B" points="459.7,306.8 450.4,425 420.6,425 420.6,348.4"/>
  <line x1="289.6" x2="148.6" y1="762.5" y2="762.5" fill="none" stroke="#3C3C3B" stroke-width="4" stroke-miterlimit="10"/>
  <rect width="50" height="16.8" x="148.6" y="753.9" fill="#3C3C3B"/>
  <rect width="35.7" height="12.2" x="215.6" y="749.7" fill="#3C3C3B"/>
  <g fill="#FFFFFF">
    <rect width="44.4" height="106.7" x="471.1" y="354.2"/>
    <rect width="72.4" height="33.3" x="354.8" y="27.1"/>
    <rect width="27.9" height="33.3" x="296" y="-123.2"/>
    <rect width="81.2" height="27.9" x="391.8" y="157.2" transform="matrix(-.236 .972 -.972 -.236 700.69 -208.793)"/>
    <rect width="77.2" height="27.9" x="388.9" y="91.2" transform="matrix(.397 .918 -.918 .397 354.1 -328.937)"/>
    <rect width="53" height="31.9" x="380.2" y="-34.6" transform="matrix(-.308 .952 -.952 -.308 513.98 -411.412)"/>
    <rect width="68.1" height="32.5" x="359.5" y="-116" transform="matrix(.458 .889 -.889 .458 124.71 -403.982)"/>
    <rect width="103.5" height="47.4" x="407.8" y="-150.9" transform="matrix(.543 .84 -.84 .543 103.105 -443.901)"/>
    <rect width="27.9" height="43.1" x="349.5" y="-182.6"/>
    <rect width="27.9" height="25.3" x="333.8" y="-173.8"/>
    <rect width="33.3" height="61.5" x="313.9" y="-244.9" transform="matrix(.148 .989 -.989 .148 69.824 -509.283)"/>
    <rect width="33.3" height="75.6" x="369.2" y="213.1" transform="matrix(.723 .691 -.691 .723 279.976 -196.996)"/>
    <rect width="41.5" height="68.7" x="409.9" y="542.1"/>
    <rect width="91.3" height="53" x="291.8" y="698" transform="matrix(-.21 .978 -.978 -.21 1116.594 546.721)"/>
    <rect width="61.5" height="36.2" x="278.5" y="790.6" transform="matrix(-.21 .978 -.978 -.21 1164.903 676.139)"/>
    <rect width="49.2" height="30.6" x="349.5" y="583.1"/>
    <rect width="49.2" height="118.2" x="352.7" y="441.2"/>
    <rect width="21.8" height="104.6" x="320" y="454.8"/>
    <rect width="68.7" height="138.9" x="352.7" y="309"/>
    <rect width="44.7" height="103.3" x="411.5" y="-261.1"/>
    <circle cx="414.2" cy="384.3" r="24.8"/>
    <path d="M356.4 647.2c0-2.7-.8-5-2-7V634c1.2-2.2 2-4.6 2-7 0-7.5-6-13.3-13.3-13.3-7.4 0-13.2 6-13.2 13.3 0 2.7.8 5 2 7v6.3c-1.2 2-2 4.5-2 7 0 7.4 6 13.2 13.3 13.2 7.6 0 13.4-5.8 13.4-13.3z"/>
    <circle cx="295.5" cy="278.9" r="16"/>
  </g>
  <g fill="#878787">
    <path d="M374.8 163.4c-2.7-8-6.7-15.2-16.8-14.4-13.3 1-11.2 12.2-14 22-3.3 10.5-5.7 7-14.5 13-9.3 6-10.6 13.2-4.3 22.8 10.6 16.2 35.7 10.6 37-9 .8-12 .5-12.5 8-16.5 7.3-4.3 7.5-9.6 4.6-18z"/>
    <path d="M356.4-72c-5-4.2-11-7.4-17-2.6-8.5 6.4-2.4 12.8-.3 20.8 2.2 8.3-.7 7-4.4 14.6-3.7 8-1.6 13.3 6.7 17.3 14 6.8 28.2-7.4 21-21.5-4.3-8.5-4.8-8.5-1.6-14.4 3-6 .8-9.6-4.3-14z"/>
    <path d="M384.4 741.2c-3.5-3.7-7.7-7-13-3.7-7.2 4-3.2 9.8-2.4 16 .8 6.7-1.3 5.3-4.8 11-3.7 5.8-2.7 10 3.5 14 10 6.4 22.6-3.2 18.6-14.6-2.7-7-3-7.3.3-11.5 2.6-4.4 1.2-7.3-2.2-11.3z"/>
  </g>
  <g>
    <use class="flensing-deck" width="8.4" height="8.4" x="-4.2" y="-4.2" xlink:href="#c" transform="matrix(2.63 0 0 -2.63 390.93 44.021)" overflow="visible"/>
    <use class="breakfast"     width="8.4" height="8.4" x="-4.2" y="-4.2" xlink:href="#c" transform="matrix(2.63 0 0 -2.63 389.655 539.778)" overflow="visible"/>
    <use class="marquee"       width="8.4" height="8.4" x="-4.2" y="-4.2" xlink:href="#c" transform="matrix(2.63 0 0 -2.63 331.912 506.476)" overflow="visible"/>
    <use class="beach"         width="8.4" height="8.4" x="-4.2" y="-4.2" xlink:href="#c" transform="matrix(2.63 0 0 -2.63 284.604 507.352)" overflow="visible"/>
    <use class="deepblue"      width="8.4" height="8.4" x="-4.2" y="-4.2" xlink:href="#c" transform="matrix(2.63 0 0 -2.63 337.129 722.706)" overflow="visible"/>
    <use class="dolphins"              width="8.4" height="8.4" x="-4.2" y="-4.2" xlink:href="#c" transform="matrix(2.63 0 0 -2.63 250.462 712.201)" overflow="visible"/>
  </g>
</svg>