<svg class="fun-icon" xmlns="http://www.w3.org/2000/svg" viewBox="-247 370.9 100 100">
  <path id="fire-outer" fill="orange" d="M-202 448l-14.2-6.3-8.3-11.7-2-12.6 6.6-9 1.2-9.8 5.7 2.3 2.5-1 7-12.5-1.2-13.8 7 1.4 7.5 5 .6 12.4v5.7l3.8.3 3.7-5s0-3.2.6-3.2 8.8 8 8.8 8l-3.6 11.2 6.5 12 3.5 9.4-5.4 10.8-9.3 5.4s-8.3 2.6-10.7 2.6c-2.4 0-10.4-1.3-10.4-1.3z"/>
  <path id="fire-middle" fill="yellow" d="M-203.6 445l-5.6-8-2-8.8 7.4-8 5.4-11.8 3.6 6.4-3 10.4.7 4 10.4 1.6 4 6.5-4 7.8-9 4.4z"/>
  <path d="M-161 453.4c-.7-3-3.7-5-6.8-4.5l-29 5-25.2-5c-3-.7-6 1.2-6.8 4.2-.3 1.4 0 3 .8 4.2.5.8 1.2 1.5 2 2l-2 .3c-1.7.3-3 1-4 2.4-.7 1.3-1 2.8-.8 4.2.6 3 3.6 5 6.7 4.5l29-5.2 25.2 5c.4.2.8.2 1.2.2 2.7 0 5-2 5.6-4.4.6-2.5-.7-5-3-6l2.4-.5c1.6-.3 3-1 3.8-2.4.7-1 1-2.5.7-4zm-64 .8c.2-.8 1-1.3 1.7-1.3h.4l15.4 3-8.5 1.5-7.7-1.6c-.5-.2-1-.5-1-.8-.3-.2-.3-.6-.3-1zm56 11.4c-.2 1-1 1.4-2 1.2l-15.5-3 8.4-1.6 8 1.7c.6.2 1 .8 1 1.6zm3.7-10.3c-.3.4-.7.6-1.2.7l-60.4 10.8c-1 .2-1.8-.4-2-1.3 0-.5 0-1 .2-1 .3-.5.7-.7 1.2-.8l30.7-5.5h.8l29-5.3c1-.3 2 .3 2.2 1.2 0 .5 0 1-.3 1zM-195 451c19.6 0 30-10.7 30-21 0-6.5-3.2-10.4-5.8-13.5-1.8-2.2-3.2-4-3-5.8 0-1.5.5-3 1.2-4.5 2.3-5.6 3.2-10.5-8.6-18.6-.7-.5-1.5-.5-2.2 0-.7.4-1 1.2-1 2 .7 4 0 6.3-.7 7-.4.4-1 .8-2 .6-1 0-1.4-.4-1.5-.4-.3-.4.2-2.2.5-3.4.8-3 1.8-7.4-.3-12-4.6-9.7-15.7-10.5-19-10.5-.8 0-1.5.4-1.8 1-.4.8-.3 1.7.3 2.3 2.7 3 4 7.2 3.7 11.7-.5 5.3-3 10-7.3 13.3l-.7.5-.7-1.2c-1-1.8-3-5.7-8-3.6-.7.3-1.2 1-1.2 1.8s.6 1.5 1.3 2c.4 0 .7.5 1 1 .6 2 .2 5.7-1 8-.3.7-1 1.3-1.8 2-2.2 2-5.2 5-5.2 11.8-.3 16.2 18.3 29.3 33.6 29.3zm8.3-9.3c-2.3 3-6.6 4.2-9.6 4.2-5.6 0-12-6-12-14 0-4.8 2.7-7.6 5.6-10.6 2.2-2.3 4.6-4.7 5.6-8 .8 2.2 0 4.7-3 10.5-1 1.5-.7 3.6.4 5.6 1.4 2.3 3.8 3.8 6.2 3.8 1.4 0 2.7-.4 3.8-1-.2.7-.2 1.6.4 2.4.8 1 2 1.5 3.5 1h.6c0 2.2-.5 4.2-1.7 6zm-34.4-29c1-1 2-1.8 2.5-3 1-2.2 1.8-5.2 1.7-8 .6.8 1.4 1.7 2.6 2 1.3.3 2.6 0 4-1.2 5.2-4 8.4-9.8 9-16.2.3-4-.4-7.8-2-11 3.8.6 8.8 2.5 11.2 7.7 1.5 3.3.8 6.5 0 9.4-.5 2.5-1 4.8.2 6.6.8 1.2 2.2 2 4 2 2.8.5 4.5-.6 5.5-1.6 1.5-1.6 2-3.8 2.2-6 6.3 5 5.2 7.7 3.7 11-.7 1.8-1.5 3.7-1.6 6 0 3.5 2 6 4.2 8.5 2.4 2.8 4.8 5.7 4.8 10.7 0 6.6-5.4 13.2-16 15.8l1.5-1.7c1.8-2.4 3.5-6.8 1.3-13.5-.3-.8-1-1.4-1.8-1.4.3-2.2-.2-4.8-3.5-8-.7-.8-1.7-1-2.5-.4s-1 1.5-.8 2.3c.6 1.7.5 3.6-.4 4.8-.5.8-1.3 1.2-2.3 1.2-1 0-2.2-1-2.8-1.8-.5-.8-.5-1.4-.4-1.7 6-11 4.2-13.7-.5-19.2l-.5-.5c-.6-.7-1.6-1-2.4-.5-1 .4-1.4 1.3-1.2 2.2 1 5-1.4 7.6-4.6 11-3.2 3.2-6.8 7-6.8 13.4 0 4.4 1.6 8.3 4 11.4-9-4.4-16.6-12.8-16.6-22 .2-5 2.2-7 4-8.7z"/>
  <circle id="spark1" cx="-218" cy="438.8" stroke="yellow" r="1.1" />
  <circle id="spark2" cx="-200" cy="438.8" stroke="yellow" r="1.1" />
  <circle id="spark3" cx="-170" cy="438.8" stroke="yellow" r="1.1" />
</svg>