<svg class="logo" xmlns="http://www.w3.org/2000/svg" xmlns:xlink="http://www.w3.org/1999/xlink" viewBox="0 0 127.6 127.6">
  <circle cx="63.8" cy="63.8" r="63.8" id="background"/>
  <g id="text_on_a_path">
    <path id="SVGID_x5F_1_x5F_" fill="none" d="M12.7 91.5c9.9 18.1 29.1 30.4 51.1 30.4 32 0 58.1-26.1 58.1-58.1 0-28-20-51.5-46.4-56.9"/>
    <text>
      <textPath xlink:href="#SVGID_x5F_1_x5F_" startOffset="31.706%"> <tspan fill="#FFF" font-size="11.5">FUTURES FORUM 2015</tspan> </textPath>
    </text>
  </g>
  <g fill="#FFF" id="F">
    <path d="M62.6 72.6H65c.5-4 3.7-7.2 7.7-7.7 4 .5 7.2 3.7 7.7 7.7h2.4c.5-4 3.7-7.2 7.7-7.7v-2.4c-4-.5-7.2-3.7-7.7-7.7h-2.4c-.5 4-3.7 7.2-7.7 7.7-4-.5-7.2-3.7-7.7-7.7h-2.4c-.5 4-3.7 7.2-7.7 7.7V65c4 .5 7.2 3.6 7.7 7.6z"/>
    <path d="M47.3 72.6h-2.4c-.5-4-3.7-7.2-7.7-7.7V100.4c4 .5 7.2 3.7 7.7 7.7h2.4c.5-4 3.7-7.2 7.7-7.7V65c-4.1.5-7.2 3.6-7.7 7.6zM54.9 44.9V29.6c4 .5 7.2 3.7 7.7 7.7H65c.5-4 3.7-7.2 7.7-7.7 4 .5 7.2 3.7 7.7 7.7h2.4c.5-4 3.7-7.2 7.7-7.7v-2.4c-4-.5-7.2-3.7-7.7-7.7h-2.4c-.5 4-3.7 7.2-7.7 7.7-4-.5-7.2-3.7-7.7-7.7h-2.4c-.5 4-3.7 7.2-7.7 7.7-4-.5-7.2-3.7-7.7-7.7h-2.4c-.5 4-3.7 7.2-7.7 7.7v35.4c4-.5 7.2-3.7 7.7-7.7h2.4c.5 4 3.7 7.2 7.7 7.7V44.9z"/>
  </g>
</svg>