<svg xmlns="http://www.w3.org/2000/svg" viewBox="0 0 68 68">
  <path d="M61.8 54.3l-3.1-4.4V28.3c0-.6-.3-1.2-.8-1.6l-5.1-3.9c.2-1 .3-2 .3-3.1 0-10.5-8.5-19-19-19s-19 8.5-19 19c0 1 .1 2.1.3 3l-5.1 3.9c-.5.4-.8 1-.8 1.6V59h4V29.3l3.1-2.3c2.7 7 9.5 11.8 17.4 11.8 3 0 5.8-.7 8.3-1.9l14.6 20.8c.6.8 1.5 1.3 2.5 1.3.6 0 1.2-.2 1.7-.5 1.3-1 1.6-2.9.7-4.2zM19.3 23l1.8 2.4 1.6-1.2-3.7-5c.3-8 6.9-14.4 15-14.4s14.6 6.4 15 14.4l-3.7 4.9 1.6 1.2 1.8-2.4c-1.4 6.8-7.5 11.9-14.7 11.9-7.2 0-13.2-5.1-14.7-11.8zm32.3 4l3.1 2.3v14.8l-7.5-10.7c1.9-1.7 3.4-3.9 4.4-6.4z"/>
  <rect x="24.9" y="14.5" transform="matrix(-.6 -.8 .8 -.6 32.917 47.581)" width="7" height="2"/>
  <rect x="22" y="16.7" transform="matrix(-.6 -.8 .8 -.6 26.669 48.717)" width="7" height="2"/>
  <rect x="19.2" y="18.8" transform="matrix(-.6 -.8 .8 -.6 20.433 49.852)" width="7" height="2"/>
  <path d="M38.1 10l-1.2-.9-.8-.6c-1.2-.9-3-.9-4.2 0l-.8.6-1.2.9-1.6 1.2 4.2 5.6 1-.7.6-.4.6.4 1 .7 4.2-5.6-1.8-1.2z"/>
  <rect x="41.9" y="18.8" transform="matrix(.6 -.8 .8 .6 2.286 44.209)" width="7" height="2"/>
  <rect x="36.2" y="14.5" transform="matrix(.6 -.8 .8 .6 3.419 37.964)" width="7" height="2"/>
  <rect x="39" y="16.7" transform="matrix(.6 -.8 .8 .6 2.851 41.084)" width="7" height="2"/>
</svg>