<svg xmlns="http://www.w3.org/2000/svg" viewBox="0 0 68 68">
  <path d="M57.9 26.7l-22.7-17c-.7-.5-1.7-.5-2.4 0l-22.7 17c-.9.7-1.1 1.9-.4 2.8.7.9 1.9 1.1 2.8.4L34 13.8l21.5 16.1c.4.3.8.4 1.2.4.6 0 1.2-.3 1.6-.8.7-.8.5-2.1-.4-2.8z"/>
  <circle cx="24.7" cy="32" r="2.8"/>
  <circle cx="34" cy="30.3" r="2.8"/>
  <circle cx="43.4" cy="42.8" r="2.8"/>
  <path d="M45.9 46.5h-5L39.4 45c-.2-.2-.3-.2-.5-.3l-.9-9.4c0-.2-.1-.4-.2-.5-.2-.5-.7-.8-1.3-.8h-5.1c-.5 0-1 .3-1.3.8-.1.2-.2.3-.2.5l-.7 7.6-.6-5.9v-.1c0-.1-.1-.3-.1-.4-.2-.5-.7-.8-1.3-.8h-5.1c-.8 0-1.4.6-1.4 1.4v8.8c0 .7.5 1.2 1.1 1.4v10.2c0 .8.6 1.4 1.4 1.4H26c.8 0 1.4-.6 1.4-1.4V46.3c.2.2.5.3.8.3h.1c.4 0 .7-.2.9-.5.2.3.5.5.9.5h.1c.3 0 .6-.1.8-.3v11.2c0 .8.6 1.4 1.4 1.4h2.8c.8 0 1.4-.6 1.4-1.4V46.3c.2.2.4.3.7.3 0 .1.1.2.2.2l2.6 2.6c.1.1.2.2.3.2v7.9c0 .8.6 1.4 1.4 1.4h2.8c.8 0 1.4-.6 1.4-1.4v-4c.6-.1 1.1-.7 1.1-1.4v-4.2c.2-.8-.4-1.4-1.2-1.4z"/>
</svg>