<svg xmlns="http://www.w3.org/2000/svg" viewBox="0 0 68 68">
  <rect x="46.5" y="44.5" width="13.3" height="4.5"/>
  <rect x="21.8" y="13.9" width="4.5" height="15.6"/>
  <path d="M54.7 50.2H40.5v-6.8h18.2v-15c0-.6-.3-1.2-.8-1.6l-22.7-17c-.7-.5-1.7-.5-2.4 0l-5.3 4v21.6h-6.8V18.9l-10.6 7.9c-.5.4-.8 1-.8 1.6V59h4V29.3l5.9-4.5v11.9h9.6v-19l5.1-3.8 20.7 15.5V42H39.1v9.6h15.6V59h4v-8.8h-4z"/>
  <path d="M22.1 9.9l1.5-1.5v4.1h1V8.4l1.5 1.5c.1.1.3.2.5.2s.4-.1.5-.2c.3-.3.3-.8 0-1.1L24 5.7l-3 3.2c-.3.3-.3.8 0 1.1s.8.2 1.1-.1z"/>
  <path d="M68 46.3h-4.1l1.5-1.5c.1-.1.2-.3.2-.5s-.1-.4-.2-.5c-.3-.3-.8-.3-1.1 0l-3.1 3.1 3.1 3.1c.3.3.8.3 1.1 0s.3-.8 0-1.1l-1.5-1.5H68v-1.1z"/>
</svg>