<svg xmlns="http://www.w3.org/2000/svg" viewBox="0 0 68 68">
  <path d="M58.7 13.3v-4H9.4v4h1.4v18.8H9.4v4h1.4V55H9.4v4h49.3v-4h-1.4V36.2h1.4v-4h-1.4V13.3h1.4zm-4.8 9.4v-9.4h1.4v18.8h-8.5V31h-7.1v1.1H12.8V13.3h34v9.4h7.1zM39.7 53.8V55H12.8V36.2h34v9.4h7.1v-9.4h1.4V55h-8.5v-1.1h-7.1z"/>
  <rect x="39.7" y="22.7" width="7.1" height="1.1"/>
  <rect x="39.7" y="24.8" width="7.1" height="1.1"/>
  <rect x="39.7" y="26.9" width="7.1" height="1.1"/>
  <rect x="39.7" y="29" width="7.1" height="1.1"/>
  <rect x="39.7" y="45.6" width="7.1" height="1.1"/>
  <rect x="39.7" y="47.6" width="7.1" height="1.1"/>
  <rect x="39.7" y="49.7" width="7.1" height="1.1"/>
  <rect x="39.7" y="51.8" width="7.1" height="1.1"/>
</svg>