<?xml version="1.0" encoding="utf-8"?>
<!-- Generator: Adobe Illustrator 18.1.1, SVG Export Plug-In . SVG Version: 6.00 Build 0)  -->
<svg version="1.1" id="plane" xmlns="http://www.w3.org/2000/svg" xmlns:xlink="http://www.w3.org/1999/xlink" x="0px" y="0px"
	 viewBox="-233.4 391.5 74.3 26.4" enable-background="new -233.4 391.5 74.3 26.4" xml:space="preserve">
<path d="M-163.1,407.3c-1.1-0.4-1.9-1.5-1.9-1.5c-2.3-2.4-7.3-2.2-7.5-2.2l-42.4,0c0,0-3.8,0.2-6.3-3.5l-5-6.9h-5.2l0.7,12.4
	l0.3,3.5h0l0,0l3.9,0.8c4.7,1,28.6,5,43.5,5c15.4,0,17.3-0.7,19.3-1.5c0.2-0.1,0.4-0.2,0.7-0.3c1.9-0.8,2.8-1.8,2.8-2.9
	C-160.4,408.7-162.3,407.6-163.1,407.3z M-164.8,407.1h-4.7v-0.6h4.2C-165.2,406.7-165,406.9-164.8,407.1z M-163.4,412.4
	c-0.3,0.1-0.5,0.2-0.7,0.3c-1.9,0.8-3.7,1.5-19,1.5c-14.9,0-38.6-4-43.4-5l-3.1-0.7l0.7-2.2h3.2l5.3,2.9l0.4-0.6l-5.5-3h-4l-0.5,1.7
	l-0.2-1.7l-0.7-11.6h4l4.8,6.6c2.8,4.1,6.8,3.9,7,3.8h42.4c0,0,4.2-0.2,6.4,1.5h-4.1v2.1h6.6c0.1,0,0.2,0.1,0.3,0.1
	c0.7,0.2,2.2,1.2,2.3,2.2C-161,411.2-162.3,412-163.4,412.4z"/>
<path d="M-210.8,409.7h3.2v-3.4h-3.2V409.7z M-210,407h1.8v1.9h-1.8V407z"/>
<path d="M-206.6,409.7h3.2v-3.4h-3.2V409.7z M-205.9,407h1.8v1.9h-1.8V407z"/>
<path d="M-202.5,409.7h3.2v-3.4h-3.2V409.7z M-201.7,407h1.8v1.9h-1.8V407z"/>
<path d="M-178.5,409.7l0-3.4h-3.2v2.4l-0.9-0.5v-1.9h-3.2v0.2l-1.1-0.6h-7.6l-0.6,1.8v-1.3h-3.2v3.4h2.6l-0.7,2.3l0.7,0.2l1.8-5.7
	h6.8l1.3,0.7v0l0.2,0.1l9.3,5.1l0.4-0.6l-3.9-2.1L-178.5,409.7L-178.5,409.7z M-195.8,408.9h-1.8V407h1.8V408.9z M-183.3,407.6
	l-1.3-0.6h1.3V407.6z M-180.9,407h1.8v1.9h-1.8V407z"/>
<path d="M-177.5,409.7h3.2v-3.4h-3.2V409.7z M-176.8,407h1.8v1.9h-1.8V407z"/>
</svg>
