<svg class="fun-icon" id="plane" xmlns="http://www.w3.org/2000/svg" viewBox="-233.4 391.5 74.3 26.4">
  <path d="M-163 407.3c-1.2-.4-2-1.5-2-1.5-2.3-2.4-7.3-2.2-7.5-2.2H-215s-3.7.2-6.2-3.5l-5-6.8h-5.2l.7 12.4.3 3.5 4 1c4.6 1 28.5 5 43.4 5 15.4 0 17.3-.8 19.3-1.6l.7-.3c2-.7 2.8-1.7 2.8-2.8-.2-1.5-2-2.6-3-3zm-1.8-.2h-4.7v-.5h4.2c0 .2.3.4.5.6zm1.4 5.4c-.3 0-.5.2-.7.3-2 .8-3.8 1.5-19 1.5-15 0-38.7-4-43.5-5l-3-.7.6-2.2h3.3l5.3 3 .4-.7-5.5-3h-4l-.5 1.7-.2-1.7-.7-11.6h4l5 6.6c2.7 4 6.7 4 7 3.8h42.3s4.2-.2 6.4 1.5h-4v2h6.8c.7.3 2.2 1.3 2.3 2.3.2 1-1 1.7-2.2 2z"/>
  <path d="M-210.8 409.7h3.2v-3.4h-3.2v3.4zm.8-2.7h1.8v2h-1.8v-2zM-206.6 409.7h3.2v-3.4h-3.2v3.4zm.7-2.7h2v2h-2v-2zM-202.5 409.7h3.2v-3.4h-3.2v3.4zm.8-2.7h1.8v2h-1.7v-2zM-178.5 409.7v-3.4h-3.2v2.4l-1-.5v-2h-3v.3l-1.2-.6h-7.5l-.6 1.7v-1.3h-3.3v3.4h2.6l-.7 2.3.7.3 1.8-5.7h7l1.2.7h.2l9.3 5.2.4-.6-3.8-2.2h1.3zm-17.3-.8h-1.8v-2h1.8v2zm12.5-1.4l-1.3-.6h1.3v.6zm2.4-.6h2v2h-2v-2zM-177.5 409.7h3.2v-3.4h-3.2v3.4zm.7-2.7h1.8v2h-1.8v-2z"/>
</svg>
