<svg version="1.1" xmlns="http://www.w3.org/2000/svg" xmlns:xlink="http://www.w3.org/1999/xlink" x="0px" y="0px"
	 viewBox="0 0 200 148" enable-background="new 0 0 200 148" xml:space="preserve">
<g class="bus">
	<rect x="36" y="48" fill="#808080" width="120" height="32"/>
	<rect x="36" y="80" fill="#B3B3B3" width="128" height="12"/>
	<rect x="36" y="92" fill="#B3B3B3" width="24" height="4"/>
	<rect x="80" y="92" fill="#B3B3B3" width="44" height="4"/>
	<rect x="144" y="92" fill="#B3B3B3" width="20" height="4"/>
	<rect x="156" y="52" fill="#808080" width="8" height="28"/>
	<rect x="48" y="56" width="16" height="16"/>
	<rect x="68" y="56" width="16" height="16"/>
	<rect x="88" y="56" width="16" height="16"/>
	<rect x="108" y="56" width="16" height="16"/>
	<rect x="144" y="56" width="16" height="16"/>
	<rect x="160" y="68" width="4" height="4"/>
	<rect x="144" y="96" width="20" height="4"/>
	<rect x="36" y="96" width="24" height="4"/>
	<rect x="156" y="48" width="4" height="4"/>
	<rect x="36" y="44" width="120" height="4"/>
	<rect x="164" y="68" width="4" height="4"/>
	<rect x="160" y="52" width="4" height="16"/>
	<rect x="164" y="72" width="4" height="24"/>
	<rect x="32" y="48" width="4" height="48"/>
	<rect x="80" y="96" width="44" height="4"/>
	<g class="wheel">
		<rect x="76" y="92" width="4" height="12"/>
		<rect x="60" y="92" width="4" height="12"/>
		<rect x="64" y="88" width="12" height="4"/>
		<rect x="64" y="104" width="12" height="4"/>
	</g>
	<g class="wheel">
		<rect x="140" y="92" width="4" height="12"/>
		<rect x="124" y="92" width="4" height="12"/>
		<rect x="128" y="88" width="12" height="4"/>
		<rect x="128" y="104" width="12" height="4"/>
	</g>
	<rect x="68" y="96" width="4" height="4"/>
	<rect x="132" y="96" width="4" height="4"/>
</g>
</svg>
