<svg class="fun-icon" id="plane" xmlns="http://www.w3.org/2000/svg" viewBox="0 20 200 105">
    <rect x="76" y="64" fill="#808080" width="48" height="52" />
    <rect x="96" y="64" fill="#B3B3B3" width="4" height="52" />
    <rect x="76" y="64" fill="#B3B3B3" width="12" height="52" />
    <rect x="72" y="60" width="4" height="56" />
    <rect x="124" y="60" width="4" height="56" />
    <rect x="128" y="72" width="8" height="4" />
    <rect x="136" y="76" width="4" height="4" />
    <rect x="128" y="100" width="8" height="4" />
    <rect x="136" y="96" width="4" height="4" />
    <rect x="140" y="80" width="4" height="16" />
    <rect x="76" y="116" width="48" height="4" />
    <rect x="76" y="60" width="48" height="4" />
    <g class="steam">
        <rect x="84" y="52" width="4" height="4" />
        <rect x="80" y="48" width="4" height="4" />
        <rect x="80" y="40" width="4" height="4" />
        <rect x="84" y="44" width="4" height="4" />
        <rect x="84" y="36" width="4" height="4" />
        <rect x="80" y="32" width="4" height="4" />
        <rect x="80" y="24" width="4" height="4" />
        <rect x="84" y="28" width="4" height="4" />
    </g>
    <g class="steam">
        <rect x="100" y="52" width="4" height="4" />
        <rect x="96" y="48" width="4" height="4" />
        <rect x="96" y="40" width="4" height="4" />
        <rect x="100" y="44" width="4" height="4" />
        <rect x="100" y="36" width="4" height="4" />
        <rect x="96" y="32" width="4" height="4" />
        <rect x="96" y="24" width="4" height="4" />
        <rect x="100" y="28" width="4" height="4" />
    </g>
    <g class="steam">
        <rect x="116" y="52" width="4" height="4" />
        <rect x="112" y="48" width="4" height="4" />
        <rect x="112" y="40" width="4" height="4" />
        <rect x="116" y="44" width="4" height="4" />
        <rect x="116" y="36" width="4" height="4" />
        <rect x="112" y="32" width="4" height="4" />
        <rect x="112" y="24" width="4" height="4" />
        <rect x="116" y="28" width="4" height="4" />
    </g>
</svg>
