<svg class="fun-icon" version="1.1" xmlns="http://www.w3.org/2000/svg" xmlns:xlink="http://www.w3.org/1999/xlink" x="0px" y="0px"
	 viewBox="0 0 200 148" enable-background="new 0 0 200 148" xml:space="preserve">
<g id="Layer_3">
	<rect x="72" y="108" fill="#808080" width="56" height="4"/>
	<rect x="84" y="40" fill="#B3B3B3" width="4" height="64"/>
	<rect x="104" y="104" fill="#B3B3B3" width="4" height="4"/>
	<rect x="88" y="60" fill="#B3B3B3" width="4" height="36"/>
	<rect x="80" y="28" fill="#B3B3B3" width="4" height="68"/>
	<rect x="76" y="36" fill="#B3B3B3" width="4" height="48"/>
	<rect x="72" y="44" fill="#B3B3B3" width="4" height="32"/>
	<rect x="68" y="56" fill="#B3B3B3" width="4" height="16"/>
	<rect x="92" y="68" fill="#B3B3B3" width="4" height="20"/>
	<rect x="108" y="76" fill="#B3B3B3" width="12" height="32"/>
	<rect x="120" y="52" fill="#B3B3B3" width="8" height="44"/>
	<rect x="116" y="56" fill="#B3B3B3" width="4" height="20"/>
	<rect x="128" y="72" fill="#B3B3B3" width="4" height="16"/>
	<rect x="100" y="32" fill="#B3B3B3" width="8" height="20"/>
	<rect x="108" y="20" fill="#B3B3B3" width="8" height="24"/>
</g>
<g id="Layer_1">
	<rect x="108" y="104" width="4" height="4"/>
	<rect x="108" y="76" width="4" height="4"/>
	<rect x="112" y="72" width="4" height="4"/>
	<rect x="128" y="88" width="4" height="4"/>
	<rect x="124" y="92" width="4" height="4"/>
	<rect x="120" y="96" width="4" height="4"/>
	<rect x="116" y="100" width="4" height="8"/>
	<rect x="116" y="68" width="4" height="4"/>
	<rect x="116" y="64" width="4" height="4"/>
	<rect x="112" y="60" width="4" height="4"/>
	<rect x="112" y="56" width="4" height="4"/>
	<rect x="116" y="52" width="4" height="4"/>
	<rect x="100" y="52" width="4" height="4"/>
	<rect x="100" y="48" width="4" height="4"/>
	<rect x="96" y="44" width="4" height="4"/>
	<rect x="96" y="40" width="4" height="4"/>
	<rect x="96" y="36" width="4" height="4"/>
	<rect x="100" y="32" width="4" height="4"/>
	<rect x="104" y="28" width="4" height="4"/>
	<rect x="108" y="24" width="4" height="4"/>
	<rect x="108" y="20" width="4" height="4"/>
	<rect x="112" y="12" width="4" height="8"/>
	<rect x="116" y="20" width="4" height="4"/>
	<rect x="116" y="24" width="4" height="4"/>
	<rect x="116" y="28" width="4" height="4"/>
	<rect x="112" y="32" width="4" height="4"/>
	<rect x="112" y="36" width="4" height="4"/>
	<rect x="112" y="40" width="4" height="4"/>
	<rect x="108" y="44" width="4" height="4"/>
	<rect x="108" y="48" width="4" height="4"/>
	<rect x="104" y="52" width="4" height="4"/>
	<rect x="104" y="56" width="4" height="4"/>
	<rect x="120" y="48" width="4" height="4"/>
	<rect x="124" y="52" width="4" height="4"/>
	<rect x="124" y="56" width="4" height="4"/>
	<rect x="124" y="60" width="4" height="4"/>
	<rect x="128" y="64" width="4" height="4"/>
	<rect x="128" y="68" width="4" height="4"/>
	<rect x="132" y="72" width="4" height="16"/>
	<rect x="104" y="80" width="4" height="24"/>
	<rect x="92" y="88" width="4" height="8"/>
	<rect x="88" y="96" width="4" height="4"/>
	<rect x="92" y="60" width="4" height="8"/>
	<rect x="88" y="56" width="4" height="4"/>
	<rect x="68" y="72" width="4" height="4"/>
	<rect x="72" y="76" width="4" height="4"/>
	<rect x="80" y="96" width="4" height="8"/>
	<rect x="68" y="108" width="4" height="4"/>
	<rect x="128" y="108" width="4" height="4"/>
	<rect x="72" y="80" width="4" height="4"/>
	<rect x="76" y="84" width="4" height="12"/>
	<rect x="88" y="52" width="4" height="4"/>
	<rect x="88" y="48" width="4" height="4"/>
	<rect x="88" y="44" width="4" height="4"/>
	<rect x="88" y="40" width="4" height="4"/>
	<rect x="84" y="28" width="4" height="12"/>
	<rect x="76" y="28" width="4" height="8"/>
	<rect x="80" y="20" width="4" height="8"/>
	<rect x="72" y="36" width="4" height="4"/>
	<rect x="72" y="40" width="4" height="4"/>
	<rect x="68" y="44" width="4" height="4"/>
	<rect x="68" y="48" width="4" height="4"/>
	<rect x="68" y="52" width="4" height="4"/>
	<rect x="64" y="56" width="4" height="16"/>
	<rect x="96" y="68" width="4" height="20"/>
	<rect x="72" y="104" width="32" height="4"/>
	<rect x="120" y="104" width="8" height="4"/>
	<rect x="72" y="112" width="56" height="4"/>
	<rect x="80" y="64" width="4" height="8"/>
	<rect x="84" y="72" width="4" height="24"/>
	<rect x="112" y="92" width="4" height="8"/>
	<rect x="116" y="84" width="4" height="8"/>
	<rect x="120" y="76" width="4" height="8"/>
</g>
</svg>
