<svg class="dolphin fun-icon" version="1.1" xmlns="http://www.w3.org/2000/svg" xmlns:xlink="http://www.w3.org/1999/xlink" x="0px" y="0px"
	 viewBox="0 0 200 148" enable-background="new 0 0 200 148" xml:space="preserve">
<g id="Layer_3">
	<rect x="44" y="60" fill="#808080" width="112" height="8"/>
	<rect x="124" y="64" fill="#808080" width="32" height="8"/>
	<rect x="136" y="68" fill="#808080" width="24" height="8"/>
	<rect x="144" y="72" fill="#808080" width="16" height="8"/>
	<rect x="148" y="76" fill="#808080" width="12" height="8"/>
	<rect x="148" y="80" fill="#808080" width="12" height="32"/>
	<rect x="160" y="100" fill="#808080" width="8" height="12"/>
	<rect x="140" y="100" fill="#808080" width="8" height="12"/>
	<rect x="132" y="108" fill="#808080" width="8" height="4"/>
	<rect x="168" y="108" fill="#808080" width="8" height="4"/>
	<rect x="40" y="68" fill="#808080" width="36" height="12"/>
	<rect x="40" y="72" fill="#808080" width="28" height="8"/>
	<rect x="36" y="84" fill="#808080" width="8" height="12"/>
	<rect x="40" y="80" fill="#808080" width="8" height="12"/>
	<rect x="44" y="76" fill="#808080" width="8" height="12"/>
	<rect x="48" y="72" fill="#808080" width="12" height="12"/>
	<rect x="32" y="96" fill="#808080" width="8" height="4"/>
	<rect x="40" y="64" fill="#808080" width="48" height="8"/>
	<rect x="72" y="72" fill="#808080" width="12" height="16"/>
	<rect x="84" y="80" fill="#808080" width="8" height="12"/>
	<rect x="92" y="88" fill="#808080" width="4" height="4"/>
	<rect x="48" y="52" fill="#808080" width="100" height="8"/>
	<rect x="60" y="44" fill="#808080" width="76" height="8"/>
	<rect x="76" y="36" fill="#808080" width="44" height="8"/>
	<rect x="84" y="24" fill="#808080" width="20" height="12"/>
	<rect x="92" y="16" fill="#808080" width="16" height="8"/>
	<rect x="44" y="92" fill="#B3B3B3" width="4" height="4"/>
	<rect x="48" y="88" fill="#B3B3B3" width="4" height="4"/>
	<rect x="52" y="84" fill="#B3B3B3" width="8" height="4"/>
	<rect x="60" y="80" fill="#B3B3B3" width="8" height="4"/>
	<rect x="84" y="72" fill="#B3B3B3" width="4" height="4"/>
	<rect x="88" y="68" fill="#B3B3B3" width="36" height="4"/>
	<rect x="124" y="72" fill="#B3B3B3" width="12" height="4"/>
	<rect x="136" y="76" fill="#B3B3B3" width="8" height="4"/>
	<rect x="144" y="80" fill="#B3B3B3" width="4" height="4"/>
</g>
<g id="Layer_1">
	<rect x="148" y="56" width="4" height="4"/>
	<rect x="152" y="60" width="4" height="4"/>
	<rect x="156" y="64" width="4" height="8"/>
	<rect x="60" y="44" width="8" height="4"/>
	<rect x="52" y="48" width="8" height="4"/>
	<rect x="48" y="52" width="4" height="4"/>
	<rect x="36" y="68" width="4" height="4"/>
	<rect x="36" y="72" width="4" height="4"/>
	<rect x="36" y="88" width="4" height="4"/>
	<rect x="40" y="76" width="4" height="4"/>
	<rect x="40" y="80" width="4" height="4"/>
	<rect x="36" y="84" width="4" height="4"/>
	<rect x="32" y="92" width="4" height="4"/>
	<rect x="28" y="96" width="4" height="4"/>
	<rect x="32" y="100" width="4" height="4"/>
	<rect x="36" y="100" width="4" height="4"/>
	<rect x="44" y="96" width="4" height="4"/>
	<rect x="40" y="96" width="4" height="4"/>
	<rect x="48" y="92" width="4" height="4"/>
	<rect x="52" y="88" width="8" height="4"/>
	<rect x="68" y="80" width="4" height="4"/>
	<rect x="56" y="68" width="4" height="4"/>
	<rect x="84" y="76" width="4" height="4"/>
	<rect x="88" y="80" width="4" height="4"/>
	<rect x="92" y="84" width="4" height="4"/>
	<rect x="96" y="88" width="4" height="4"/>
	<rect x="72" y="84" width="4" height="4"/>
	<rect x="84" y="92" width="12" height="4"/>
	<rect x="76" y="88" width="8" height="4"/>
	<rect x="88" y="72" width="28" height="4"/>
	<rect x="116" y="72" width="8" height="4"/>
	<rect x="124" y="76" width="12" height="4"/>
	<rect x="136" y="80" width="8" height="4"/>
	<rect x="144" y="84" width="4" height="4"/>
	<rect x="148" y="88" width="4" height="8"/>
	<rect x="144" y="96" width="4" height="4"/>
	<rect x="156" y="88" width="4" height="8"/>
	<rect x="164" y="100" width="4" height="4"/>
	<rect x="168" y="104" width="8" height="4"/>
	<rect x="152" y="108" width="4" height="4"/>
	<rect x="140" y="100" width="4" height="4"/>
	<rect x="132" y="104" width="8" height="4"/>
	<rect x="132" y="112" width="20" height="4"/>
	<rect x="156" y="112" width="20" height="4"/>
	<rect x="160" y="96" width="4" height="4"/>
	<rect x="160" y="72" width="4" height="16"/>
	<rect x="176" y="108" width="4" height="4"/>
	<rect x="128" y="108" width="4" height="4"/>
	<rect x="40" y="60" width="4" height="8"/>
	<rect x="60" y="84" width="8" height="4"/>
	<rect x="44" y="56" width="4" height="4"/>
	<rect x="68" y="40" width="8" height="4"/>
	<rect x="120" y="40" width="8" height="4"/>
	<rect x="128" y="44" width="8" height="4"/>
	<rect x="136" y="48" width="8" height="4"/>
	<rect x="144" y="52" width="4" height="4"/>
	<rect x="104" y="36" width="16" height="4"/>
	<rect x="80" y="28" width="4" height="8"/>
	<rect x="84" y="24" width="4" height="4"/>
	<rect x="88" y="20" width="4" height="4"/>
	<rect x="92" y="16" width="4" height="4"/>
	<rect x="96" y="12" width="12" height="4"/>
	<rect x="104" y="20" width="4" height="4"/>
	<rect x="108" y="16" width="4" height="4"/>
	<rect x="100" y="24" width="4" height="8"/>
	<rect x="100" y="32" width="4" height="4"/>
	<rect x="76" y="36" width="4" height="4"/>
</g>
</svg>
