<svg class="fun-icon plane" version="1.1" xmlns="http://www.w3.org/2000/svg" xmlns:xlink="http://www.w3.org/1999/xlink" x="0px" y="0px"
	 viewBox="0 0 200 148" enable-background="new 0 0 200 148" xml:space="preserve">

<g id="Layer_1">
	<rect x="48" y="68" fill="#808080" width="116" height="20"/>
	<rect x="164" y="84" fill="#808080" width="12" height="4"/>
	<rect x="48" y="64" fill="#808080" width="24" height="4"/>
	<rect x="48" y="36" fill="#808080" width="20" height="28"/>
	<rect x="28" y="72" fill="#808080" width="20" height="12"/>
	<rect x="104" y="96" fill="#808080" width="20" height="8"/>
	<rect x="48" y="32" fill="#808080" width="12" height="4"/>
	<rect x="52" y="88" fill="#B3B3B3" width="120" height="8"/>
	<rect x="104" y="96" fill="#B3B3B3" width="12" height="8"/>
	<rect x="48" y="28" width="4" height="36"/>
	<rect x="52" y="28" width="8" height="4"/>
	<rect x="60" y="32" width="4" height="4"/>
	<rect x="68" y="60" width="4" height="4"/>
	<rect x="52" y="92" width="4" height="4"/>
	<rect x="48" y="88" width="4" height="4"/>
	<rect x="44" y="84" width="4" height="4"/>
	<rect x="24" y="76" width="4" height="4"/>
	<rect x="28" y="80" width="4" height="4"/>
	<rect x="32" y="84" width="12" height="4"/>
	<rect x="20" y="72" width="24" height="4"/>
	<rect x="156" y="68" width="8" height="4"/>
	<rect x="176" y="80" width="4" height="8"/>
	<rect x="172" y="76" width="4" height="4"/>
	<rect x="136" y="76" width="8" height="8"/>
	<rect x="156" y="76" width="16" height="8"/>
	<rect x="124" y="76" width="8" height="8"/>
	<rect x="112" y="76" width="8" height="8"/>
	<rect x="100" y="76" width="8" height="8"/>
	<rect x="88" y="76" width="8" height="8"/>
	<rect x="76" y="76" width="8" height="8"/>
	<rect x="172" y="88" width="4" height="4"/>
	<rect x="104" y="92" width="20" height="4"/>
	<rect x="124" y="100" width="4" height="4"/>
	<rect x="56" y="96" width="44" height="4"/>
	<rect x="104" y="104" width="20" height="4"/>
	<rect x="100" y="92" width="4" height="16"/>
	<rect x="172" y="80" width="4" height="4"/>
	<rect x="164" y="92" width="8" height="4"/>
	<rect x="124" y="96" width="40" height="4"/>
	<rect x="164" y="72" width="8" height="4"/>
	<rect x="44" y="64" width="4" height="8"/>
	<rect x="72" y="64" width="84" height="4"/>
	<rect x="64" y="36" width="4" height="24"/>
</g>
</svg>
