<svg class="fun-icon" xmlns="http://www.w3.org/2000/svg" viewBox="0 0 200 148">
  <rect width="120" height="4" x="40" y="92" fill="#B3B3B3"/>
  <g class="zeds">
    <rect width="12" height="4" x="68" y="40"/>
    <rect width="12" height="4" x="68" y="56"/>
    <rect width="4" height="4" x="76" y="44"/>
    <rect width="4" height="4" x="72" y="48"/>
    <rect width="4" height="4" x="68" y="52"/>
  </g>
  <g class="zeds">
    <rect width="12" height="4" x="48" y="12"/>
    <rect width="12" height="4" x="48" y="28"/>
    <rect width="4" height="4" x="56" y="16"/>
    <rect width="4" height="4" x="52" y="20"/>
    <rect width="4" height="4" x="48" y="24"/>
  </g>
  <g class="zeds">
    <rect width="12" height="4" x="88" y="24"/>
    <rect width="12" height="4" x="88" y="40"/>
    <rect width="4" height="4" x="96" y="28"/>
    <rect width="4" height="4" x="92" y="32"/>
    <rect width="4" height="4" x="88" y="36"/>
  </g>
  <rect width="4" height="44" x="36" y="72"/>
  <rect width="4" height="36" x="160" y="80"/>
  <rect width="120" height="4" x="40" y="96"/>
  <rect width="120" height="4" x="40" y="88"/>
  <rect width="40" height="8" x="104" y="80"/>
  <rect width="40" height="12" x="64" y="76"/>
  <rect width="4" height="12" x="60" y="72"/>
  <rect width="4" height="12" x="44" y="72"/>
  <rect width="12" height="16" x="48" y="68"/>
  <rect width="12" height="4" x="48" y="84"/>
  <rect width="4" height="16" x="144" y="72"/>
  <rect width="4" height="16" x="148" y="72"/>
  <rect width="8" height="4" x="68" y="92"/>
  <rect width="8" height="4" x="72" y="96"/>
  <rect width="8" height="4" x="76" y="100"/>
  <rect width="8" height="4" x="80" y="104"/>
  <rect width="8" height="4" x="84" y="108"/>
</svg>