<svg version="1.1" xmlns="http://www.w3.org/2000/svg" xmlns:xlink="http://www.w3.org/1999/xlink" x="0px" y="0px"
	 viewBox="0 0 200 148" enable-background="new 0 0 200 148" xml:space="preserve">

<g id="Layer_3">
	<rect x="40" y="92" fill="#B3B3B3" width="120" height="4"/>
</g>
<g id="Layer_1">
	<rect x="36" y="72" width="4" height="44"/>
	<rect x="160" y="80" width="4" height="36"/>
	<rect x="40" y="96" width="120" height="4"/>
	<rect x="40" y="88" width="120" height="4"/>
	<rect x="68" y="40" width="12" height="4"/>
	<rect x="68" y="56" width="12" height="4"/>
	<rect x="104" y="80" width="40" height="8"/>
	<rect x="64" y="76" width="40" height="12"/>
	<rect x="76" y="44" width="4" height="4"/>
	<rect x="72" y="48" width="4" height="4"/>
	<rect x="68" y="52" width="4" height="4"/>
	<rect x="48" y="12" width="12" height="4"/>
	<rect x="48" y="28" width="12" height="4"/>
	<rect x="56" y="16" width="4" height="4"/>
	<rect x="52" y="20" width="4" height="4"/>
	<rect x="48" y="24" width="4" height="4"/>
	<rect x="88" y="24" width="12" height="4"/>
	<rect x="88" y="40" width="12" height="4"/>
	<rect x="96" y="28" width="4" height="4"/>
	<rect x="92" y="32" width="4" height="4"/>
	<rect x="88" y="36" width="4" height="4"/>
	<g>
		<rect x="60" y="72" width="4" height="12"/>
		<rect x="44" y="72" width="4" height="12"/>
		<rect x="48" y="68" width="12" height="16"/>
		<rect x="48" y="84" width="12" height="4"/>
	</g>
	<rect x="144" y="72" width="4" height="16"/>
	<rect x="148" y="72" width="4" height="16"/>
	<rect x="68" y="92" width="8" height="4"/>
	<rect x="72" y="96" width="8" height="4"/>
	<rect x="76" y="100" width="8" height="4"/>
	<rect x="80" y="104" width="8" height="4"/>
	<rect x="84" y="108" width="8" height="4"/>
</g>
</svg>
