<svg class="fun-icon" version="1.1" xmlns="http://www.w3.org/2000/svg" xmlns:xlink="http://www.w3.org/1999/xlink" x="0px" y="0px"
	 viewBox="0 0 200 148" enable-background="new 0 0 200 148" xml:space="preserve">
<g id="Layer_3">
	<rect x="44" y="80" fill="#808080" width="112" height="12"/>
	<rect x="44" y="92" fill="#B3B3B3" width="12" height="4"/>
	<rect x="140" y="92" fill="#B3B3B3" width="16" height="4"/>
	<rect x="76" y="92" fill="#B3B3B3" width="44" height="4"/>
	<rect x="72" y="64" fill="#808080" width="4" height="16"/>
	<rect x="100" y="64" fill="#808080" width="4" height="16"/>
</g>
<g id="Layer_1">
	<rect x="76" y="64" width="24" height="16"/>
	<rect x="56" y="72" width="16" height="8"/>
	<rect x="64" y="68" width="8" height="4"/>
	<rect x="68" y="64" width="4" height="4"/>
	<rect x="104" y="64" width="16" height="16"/>
	<rect x="128" y="72" width="4" height="4"/>
	<rect x="120" y="72" width="12" height="8"/>
	<rect x="124" y="68" width="4" height="4"/>
	<rect x="120" y="68" width="4" height="4"/>
	<rect x="120" y="64" width="4" height="4"/>
	<rect x="140" y="96" width="16" height="4"/>
	<rect x="44" y="96" width="12" height="4"/>
	<rect x="152" y="80" width="4" height="4"/>
	<rect x="68" y="60" width="52" height="4"/>
	<rect x="132" y="76" width="20" height="4"/>
	<rect x="156" y="84" width="4" height="12"/>
	<rect x="56" y="72" width="4" height="4"/>
	<rect x="60" y="68" width="4" height="4"/>
	<rect x="64" y="64" width="4" height="4"/>
	<!-- <rect x="100" y="52" width="4" height="8"/> --><!-- not a taxi -->
	<rect x="40" y="80" width="4" height="4"/>
	<rect x="44" y="76" width="12" height="4"/>
	<rect x="40" y="84" width="4" height="12"/>
	<rect x="76" y="96" width="44" height="4"/>
	<g class="wheel">
		<rect x="72" y="92" width="4" height="12"/>
		<rect x="56" y="92" width="4" height="12"/>
		<rect x="60" y="88" width="12" height="4"/>
		<rect x="60" y="104" width="12" height="4"/>
	</g>
	<g class="wheel">
		<rect x="136" y="92" width="4" height="12"/>
		<rect x="120" y="92" width="4" height="12"/>
		<rect x="124" y="88" width="12" height="4"/>
		<rect x="124" y="104" width="12" height="4"/>
	</g>
	<rect x="64" y="96" width="4" height="4"/>
	<rect x="128" y="96" width="4" height="4"/>
</g>
</svg>
