<?xml version="1.0" encoding="utf-8"?>
<!-- Generator: Adobe Illustrator 18.1.1, SVG Export Plug-In . SVG Version: 6.00 Build 0)  -->
<svg version="1.1" id="Layer_1" xmlns="http://www.w3.org/2000/svg" xmlns:xlink="http://www.w3.org/1999/xlink" x="0px" y="0px"
	 viewBox="-273 410.4 48 34.5" enable-background="new -273 410.4 48 34.5" xml:space="preserve">
<g>
	<path d="M-272,442.9c-0.6,0-1,0.4-1,1s0.4,1,1,1h46c0.6,0,1-0.4,1-1s-0.4-1-1-1h-11h-26H-272z"/>
	<path d="M-236,441.9h8c1.7,0,3-1.3,3-3v-5c0-1.7-1.3-3-3-3h-0.3c0.2-0.4,0.3-0.8,0.3-1.2c0-1.5-1.2-2.8-2.8-2.8h-10.6h-17.4
		c0,0,0,0,0,0c-1.5,0-2.8,1.2-2.8,2.8v0v1.2h-2.2c1-0.8,1.7-2.1,1.7-3.5c0-2.5-2-4.5-4.5-4.5c-2.5,0-4.5,2-4.5,4.5
		c0,1.4,0.7,2.7,1.7,3.5h-0.7c-1.7,0-3,1.3-3,3v5c0,1.7,1.3,3,3,3h6c0,0.6,0.4,1,1,1s1-0.4,1-1h24c0,0.6,0.4,1,1,1
		S-236,442.4-236,441.9z M-266.5,424.9c1.4,0,2.5,1.1,2.5,2.5c0,1.4-1.1,2.5-2.5,2.5c-1.4,0-2.5-1.1-2.5-2.5
		C-269,426-267.9,424.9-266.5,424.9z M-230.8,428.9c0.4,0,0.8,0.3,0.8,0.8s-0.3,0.8-0.8,0.8h-4.8l-2.1-1.5H-230.8z M-231.4,435.9
		c0.3,0.2,0.4,0.7,0.2,1c-0.1,0.2-0.4,0.3-0.6,0.3c0,0,0,0-0.1,0c-0.1,0-0.3-0.1-0.4-0.1l-5.8-4.2l-0.7-0.5l-2.1-1.5l-0.7-0.5h-2.4
		h-12l0,0v0c0-0.6-0.4-1-1-1s-1,0.4-1,1v0l0,0v0.5v1.5v0.5v3.8c0,0.4-0.3,0.8-0.8,0.8s-0.8-0.3-0.8-0.8v-3.8v-0.6v-1.4v-1.2
		c0-0.4,0.3-0.8,0.8-0.8h0h2.6h12.1h2.6c0.2,0,0.3,0,0.4,0.1 M-270,439.9c-0.6,0-1-0.4-1-1v-5c0-0.6,0.4-1,1-1h8.5v3.8
		c0,1.5,1.2,2.8,2.8,2.8s2.8-1.2,2.8-2.8v-3.8h14.5l8,5.8c0.4,0.3,0.9,0.5,1.4,0.5c0.1,0,0.2,0,0.2,0c0.9,0,1.7-0.4,2.2-1.1
		c0.9-1.2,0.6-3-0.6-3.8l-1.9-1.3h4.1c0.6,0,1,0.4,1,1v5c0,0.6-0.4,1-1,1H-270z"/>
	<path class="zeds" d="M-247,415.9h1l-1.8,2.4c-0.2,0.3-0.3,0.7-0.1,1c0.2,0.3,0.5,0.6,0.9,0.6h3c0.6,0,1-0.4,1-1s-0.4-1-1-1h-1l1.8-2.4
		c0.2-0.3,0.3-0.7,0.1-1c-0.2-0.3-0.5-0.6-0.9-0.6h-3c-0.6,0-1,0.4-1,1S-247.6,415.9-247,415.9z"/>
	<path class="zeds" d="M-241,417.9h1l-1.8,2.4c-0.2,0.3-0.3,0.7-0.1,1c0.2,0.3,0.5,0.6,0.9,0.6h3c0.6,0,1-0.4,1-1s-0.4-1-1-1h-1l1.8-2.4
		c0.2-0.3,0.3-0.7,0.1-1c-0.2-0.3-0.5-0.6-0.9-0.6h-3c-0.6,0-1,0.4-1,1S-241.6,417.9-241,417.9z"/>
	<path class="zeds" d="M-254,417.9h2.1l-3,4.4c-0.2,0.3-0.2,0.7-0.1,1c0.2,0.3,0.5,0.5,0.9,0.5h4c0.6,0,1-0.4,1-1s-0.4-1-1-1h-2.1l3-4.4
		c0.2-0.3,0.2-0.7,0.1-1c-0.2-0.3-0.5-0.5-0.9-0.5h-4c-0.6,0-1,0.4-1,1S-254.6,417.9-254,417.9z"/>
	<path class="zeds" d="M-261,412.9h3.2l-4,6.5c-0.2,0.3-0.2,0.7,0,1c0.2,0.3,0.5,0.5,0.9,0.5h5c0.6,0,1-0.4,1-1s-0.4-1-1-1h-3.2l4-6.5
		c0.2-0.3,0.2-0.7,0-1c-0.2-0.3-0.5-0.5-0.9-0.5h-5c-0.6,0-1,0.4-1,1S-261.6,412.9-261,412.9z"/>
</g>
</svg>
