662 bytes - 34.52% saving
<svg xmlns="http://www.w3.org/2000/svg" viewBox="-273 410.4 48 34.5">
  <path d="M-272 443c-.6 0-1 .3-1 1s.4 1 1 1h46c.6 0 1-.5 1-1s-.4-1-1-1h-46z"/>
  <path d="M-236 442h8c1.7 0 3-1.4 3-3v-5c0-1.8-1.3-3-3-3h-.3l.3-1.3c0-1.5-1.2-2.8-2.8-2.8h-28c-1.5 0-2.8 1-2.8 2.7v1.2h-2.2c1-1 1.7-2.2 1.7-3.6 0-2.5-2-4.5-4.6-4.5-2.5 0-4.5 2-4.5 4.4 0 1.4.6 2.7 1.6 3.5h-.7c-1.8 0-3 1.2-3 3v5c0 1.6 1.2 3 3 3h6c0 .5.3 1 1 1s1-.5 1-1h24c0 .5.3 1 1 1s1-.6 1-1zm-30.5-17c1.4 0 2.5 1 2.5 2.4s-1 2.5-2.5 2.5c-1.4 0-2.5-1.2-2.5-2.6 0-1.4 1-2.5 2.5-2.5zm35.7 4c.4 0 .8.2.8.7s-.3.8-.8.8h-4.8l-2-1.5h6.8zm-.6 7c.3 0 .4.6.2 1l-.6.2h-.5l-5.8-4.3-.8-.6-2-1.5-.8-.6H-256c0-.6-.4-1-1-1s-1 .4-1 1v6.1c0 .4-.3.8-.8.8s-.8-.3-.8-.8v-7.2c0-.4.3-.8.8-.8h17.7m-29 11c-.6 0-1-.5-1-1v-5c0-.7.4-1 1-1h8.5v3.7c0 1.5 1.2 2.8 2.8 2.8s2.8-1.2 2.8-2.8V433h14.6l8 5.7c.4.3 1 .5 1.4.5h.2c1 0 1.7-.4 2.2-1 1-1.3.6-3-.6-4l-2-1.2h4.2c.6 0 1 .4 1 1v5c0 .6-.4 1-1 1h-42z"/>
  <path d="M-247 416h1l-1.8 2.3c-.2.3-.3.7 0 1 0 .3.4.6.8.6h3c.6 0 1-.5 1-1s-.4-1-1-1h-1l1.8-2.5c.2-.3.3-.7 0-1 0-.3-.4-.6-.8-.6h-3c-.6 0-1 .3-1 1s.4 1 1 1z" class="zeds"/>
  <path d="M-241 418h1l-1.8 2.3c-.2.3-.3.7 0 1 0 .3.4.6.8.6h3c.6 0 1-.5 1-1s-.4-1-1-1h-1l1.8-2.5c.2-.3.3-.7 0-1 0-.3-.4-.6-.8-.6h-3c-.6 0-1 .3-1 1s.4 1 1 1z" class="zeds"/>
  <path d="M-254 418h2l-3 4.3v1c.2.3.5.5 1 .5h4c.5 0 1-.4 1-1s-.5-1-1-1h-2.2l3-4.4c.2-.3.2-.7 0-1 0-.3-.4-.5-.8-.5h-4c-.6 0-1 .3-1 1s.4 1 1 1z" class="zeds"/>
  <path d="M-261 413h3.2l-4 6.4c-.2.3-.2.7 0 1 .2.3.5.5 1 .5h5c.5 0 1-.5 1-1s-.5-1-1-1h-3.3l4-6.6v-1c-.3-.3-.6-.5-1-.5h-5c-.6 0-1 .3-1 1s.4 1 1 1z" class="zeds"/>
</svg>