<svg xmlns="http://www.w3.org/2000/svg" viewBox="59 -426.2 202.8 212.6">
  <path fill="none" stroke="#9D9D9C" stroke-width="3" stroke-miterlimit="10" d="M254.6-214c0-22 11.4-41.4 28.7-52.8 17.3-11.7 28.7-31 28.7-52.7s-11.4-41.3-28.7-52.7c-17.3-11.7-28.7-31-28.7-52.7" stroke-linecap="round"/>
  <path fill="none" stroke="#9D9D9C" stroke-width="3" stroke-miterlimit="10" d="M204.3-214c0-22 11.4-41.4 28.7-52.8 17.3-11.7 28.7-31 28.7-52.7s-11.4-41.3-28.7-52.7c-17.3-11.7-28.7-31-28.7-52.7" stroke-linecap="round"/>
  <path fill="none" stroke="#9D9D9C" stroke-width="3" stroke-miterlimit="10" d="M153.2-214c0-22 11.4-41.4 28.7-52.8 17-11.7 28.5-31 28.5-52.7s-11.4-41.3-28.7-52.7C164.5-384 153-403.2 153-425" stroke-linecap="round"/>
  <path fill="none" stroke="#9D9D9C" stroke-width="3" stroke-miterlimit="10" d="M103-214c0-22 11.3-41.4 28.6-52.8 17.3-11.7 28.7-31 28.7-52.7s-11.4-41.3-28.7-52.7C114.3-384 103-403.2 103-425" stroke-linecap="round"/>
  <path fill="none" stroke="#9D9D9C" stroke-width="3" stroke-miterlimit="10" d="M51.8-214c0-22 11.4-41.4 28.7-52.8 17.3-11.7 28.7-31 28.7-52.7s-11.4-41.3-28.7-52.7c-17.3-11.7-28.7-31-28.7-52.7" stroke-linecap="round"/>
</svg>